<svg xmlns="http://www.w3.org/2000/svg" width="1600" height="340" viewBox="0 0 1600 340" preserveAspectRatio="xMidYMax slice">
<defs>
  <linearGradient id="turf" x1="0" y1="0" x2="0" y2="1">
    <stop offset="0%" stop-color="#0a2417" stop-opacity="0"></stop>
    <stop offset="60%" stop-color="#08200f" stop-opacity="0.55"></stop>
    <stop offset="100%" stop-color="#051a0c" stop-opacity="0.9"></stop>
  </linearGradient>
</defs>
<rect x="0" y="220" width="1600" height="120" fill="url(#turf)"></rect>
<path d="M 1119.9 340 C 1115.2 286.4 1114.4 250.7 1112.4 220.9 C 1116.9 252.7 1121.3 286.4 1126.0 340 Z" fill="#123d24" opacity="0.68"></path>
<path d="M 1038.3 340 C 1048.0 306.2 1051.8 283.7 1052.6 265.0 C 1054.0 285.7 1053.6 306.2 1044.0 340 Z" fill="#1a3a0e" opacity="0.81"></path>
<path d="M 647.5 340 C 666.6 265.1 679.3 215.2 678.9 173.6 C 682.4 217.2 674.2 265.1 655.1 340 Z" fill="#19543e" opacity="0.77"></path>
<path d="M 759.1 340 C 762.5 304.4 769.5 280.6 772.3 260.8 C 771.4 282.6 767.0 304.4 763.7 340 Z" fill="#0d3b3e" opacity="0.80"></path>
<path d="M 1578.9 340 C 1590.7 280.2 1585.0 240.4 1588.6 207.2 C 1588.6 242.4 1599.6 280.2 1587.8 340 Z" fill="#2f7350" opacity="0.88"></path>
<path d="M 1260.9 340 C 1261.2 270.5 1263.9 224.2 1260.4 185.6 C 1267.0 226.2 1268.9 270.5 1268.6 340 Z" fill="#1a3a0e" opacity="0.99"></path>
<path d="M 1405.4 340 C 1402.5 308.0 1406.4 286.7 1402.7 268.9 C 1410.3 288.7 1412.3 308.0 1415.1 340 Z" fill="#123d24" opacity="0.93"></path>
<path d="M 104.9 340 C 108.8 303.5 93.6 279.2 95.4 258.9 C 96.5 281.2 116.1 303.5 112.2 340 Z" fill="#19543e" opacity="0.60"></path>
<path d="M 513.7 340 C 518.2 297.2 522.3 268.7 519.9 244.9 C 524.6 270.7 523.9 297.2 519.4 340 Z" fill="#19543e" opacity="0.82"></path>
<path d="M 1270.7 340 C 1273.8 310.2 1277.9 290.3 1276.2 273.8 C 1280.4 292.3 1280.0 310.2 1277.0 340 Z" fill="#0d3b3e" opacity="0.75"></path>
<path d="M 1106.7 340 C 1108.0 245.2 1111.4 181.9 1111.2 129.2 C 1114.3 183.9 1115.1 245.2 1113.8 340 Z" fill="#123d24" opacity="0.97"></path>
<path d="M 277.6 340 C 287.3 261.5 283.4 209.1 287.2 165.4 C 285.3 211.1 292.2 261.5 282.5 340 Z" fill="#0a2a1a" opacity="0.60"></path>
<path d="M 1244.3 340 C 1242.8 295.4 1239.5 265.7 1237.6 240.9 C 1243.4 267.7 1252.6 295.4 1254.1 340 Z" fill="#0d3b3e" opacity="0.87"></path>
<path d="M 1047.4 340 C 1062.3 249.6 1076.1 189.3 1078.5 139.1 C 1078.9 191.3 1069.3 249.6 1054.4 340 Z" fill="#57b07c" opacity="0.62"></path>
<path d="M 1554.7 340 C 1550.6 312.0 1552.4 293.4 1549.7 277.8 C 1554.4 295.4 1555.6 312.0 1559.7 340 Z" fill="#2f7350" opacity="0.62"></path>
<path d="M 1363.8 340 C 1369.1 314.1 1379.1 296.8 1376.1 282.4 C 1381.5 298.8 1375.1 314.1 1369.8 340 Z" fill="#123d24" opacity="0.91"></path>
<path d="M 80.5 340 C 84.4 261.9 90.6 209.8 93.6 166.5 C 93.9 211.8 92.8 261.9 88.8 340 Z" fill="#0a2a1a" opacity="0.64"></path>
<path d="M 374.6 340 C 379.8 293.0 393.4 261.6 392.2 235.4 C 397.2 263.6 389.3 293.0 384.2 340 Z" fill="#0e4a3a" opacity="0.64"></path>
<path d="M 1556.9 340 C 1565.1 290.0 1565.6 256.7 1565.2 228.9 C 1567.4 258.7 1569.8 290.0 1561.6 340 Z" fill="#0e4a3a" opacity="0.88"></path>
<path d="M 612.2 340 C 616.2 238.1 614.7 170.2 614.8 113.6 C 617.8 172.2 624.0 238.1 620.0 340 Z" fill="#0e4a3a" opacity="0.62"></path>
<path d="M 1371.6 340 C 1370.7 301.5 1360.7 275.8 1361.9 254.4 C 1363.6 277.8 1378.1 301.5 1379.0 340 Z" fill="#0a2a1a" opacity="0.60"></path>
<path d="M 1343.7 340 C 1344.1 236.2 1329.0 167.1 1325.6 109.4 C 1332.0 169.1 1351.7 236.2 1351.4 340 Z" fill="#2f7350" opacity="0.81"></path>
<path d="M 328.9 340 C 331.6 295.3 328.7 265.6 327.0 240.8 C 332.1 267.6 340.0 295.3 337.2 340 Z" fill="#123d24" opacity="0.94"></path>
<path d="M 1421.6 340 C 1427.7 289.3 1438.0 255.5 1438.8 227.3 C 1440.4 257.5 1433.9 289.3 1427.8 340 Z" fill="#0d3b3e" opacity="0.75"></path>
<path d="M 1598.2 340 C 1592.5 280.8 1594.3 241.3 1590.4 208.4 C 1596.0 243.3 1596.7 280.8 1602.4 340 Z" fill="#57b07c" opacity="0.64"></path>
<path d="M 1001.0 340 C 1000.9 307.2 997.8 285.3 1001.6 267.0 C 1001.3 287.3 1009.6 307.2 1009.7 340 Z" fill="#2f7350" opacity="0.56"></path>
<path d="M 806.2 340 C 812.1 307.4 803.4 285.7 803.7 267.6 C 806.1 287.7 818.9 307.4 813.0 340 Z" fill="#0d3b3e" opacity="0.77"></path>
<path d="M 1471.3 340 C 1485.2 257.9 1498.5 203.1 1501.5 157.5 C 1501.9 205.1 1493.6 257.9 1479.7 340 Z" fill="#19543e" opacity="0.70"></path>
<path d="M 74.6 340 C 79.7 252.6 95.5 194.3 93.2 145.7 C 98.5 196.3 87.1 252.6 82.0 340 Z" fill="#0a2a1a" opacity="0.68"></path>
<path d="M 993.3 340 C 1002.8 291.4 999.3 259.0 1001.9 232.0 C 1003.4 261.0 1013.0 291.4 1003.5 340 Z" fill="#0a2a1a" opacity="0.98"></path>
<path d="M 1541.2 340 C 1543.0 316.3 1549.9 300.4 1552.3 287.2 C 1552.6 302.4 1549.9 316.3 1548.1 340 Z" fill="#0d3b3e" opacity="0.66"></path>
<path d="M 756.3 340 C 757.1 318.9 757.2 304.9 756.0 293.2 C 760.1 306.9 764.2 318.9 763.4 340 Z" fill="#0d3b3e" opacity="0.72"></path>
<path d="M 552.0 340 C 556.0 287.5 551.2 252.5 554.9 223.3 C 555.5 254.5 566.7 287.5 562.7 340 Z" fill="#0e4a3a" opacity="0.88"></path>
<path d="M 684.5 340 C 693.2 230.0 696.9 156.7 698.5 95.6 C 700.9 158.7 703.2 230.0 694.5 340 Z" fill="#0e4a3a" opacity="0.62"></path>
<path d="M 863.5 340 C 861.4 309.3 858.3 288.9 857.9 271.9 C 861.9 290.9 870.5 309.3 872.6 340 Z" fill="#0e4a3a" opacity="0.72"></path>
<path d="M 518.3 340 C 521.7 305.1 530.5 281.8 530.4 262.4 C 533.0 283.8 527.8 305.1 524.5 340 Z" fill="#1a3a0e" opacity="0.63"></path>
<path d="M 1165.1 340 C 1163.2 251.2 1139.8 192.0 1142.7 142.6 C 1142.2 194.0 1169.2 251.2 1171.1 340 Z" fill="#57b07c" opacity="0.98"></path>
<path d="M 243.3 340 C 260.9 253.6 281.4 196.0 279.0 148.1 C 285.3 198.0 270.6 253.6 253.0 340 Z" fill="#123d24" opacity="0.93"></path>
<path d="M 660.4 340 C 662.9 252.2 658.3 193.7 656.2 144.9 C 660.7 195.7 668.8 252.2 666.4 340 Z" fill="#2f7350" opacity="0.83"></path>
<path d="M 246.5 340 C 235.1 226.3 215.6 150.5 218.1 87.4 C 219.9 152.5 246.1 226.3 257.5 340 Z" fill="#123d24" opacity="0.61"></path>
<path d="M 1597.7 340 C 1594.6 282.6 1586.2 244.4 1582.5 212.5 C 1589.3 246.4 1602.4 282.6 1605.4 340 Z" fill="#123d24" opacity="0.94"></path>
<path d="M 1337.0 340 C 1343.6 264.1 1357.1 213.5 1359.6 171.4 C 1361.0 215.5 1353.4 264.1 1346.8 340 Z" fill="#0a2a1a" opacity="0.72"></path>
<path d="M 118.8 340 C 110.7 253.6 106.3 196.0 103.9 148.0 C 108.8 198.0 117.0 253.6 125.1 340 Z" fill="#1a3a0e" opacity="0.76"></path>
<path d="M 658.0 340 C 658.2 253.6 672.2 196.0 668.9 148.1 C 674.6 198.0 664.0 253.6 663.9 340 Z" fill="#0d3b3e" opacity="0.83"></path>
<path d="M 1457.1 340 C 1458.6 273.5 1448.8 229.2 1445.3 192.3 C 1453.1 231.2 1469.4 273.5 1467.9 340 Z" fill="#57b07c" opacity="0.99"></path>
<path d="M 1385.6 340 C 1390.3 284.9 1375.3 248.2 1379.0 217.7 C 1379.0 250.2 1399.3 284.9 1394.6 340 Z" fill="#0d3b3e" opacity="0.63"></path>
<path d="M 705.2 340 C 713.1 279.0 712.8 238.3 709.8 204.4 C 716.1 240.3 721.4 279.0 713.6 340 Z" fill="#2f7350" opacity="0.56"></path>
<path d="M 500.3 340 C 494.3 252.5 483.0 194.2 482.3 145.6 C 485.8 196.2 501.3 252.5 507.4 340 Z" fill="#0a2a1a" opacity="0.84"></path>
<path d="M 995.3 340 C 999.8 272.3 1012.2 227.2 1014.5 189.5 C 1014.0 229.2 1004.2 272.3 999.7 340 Z" fill="#19543e" opacity="0.84"></path>
<path d="M 570.0 340 C 574.1 315.4 563.5 299.1 563.8 285.4 C 565.2 301.1 578.3 315.4 574.2 340 Z" fill="#0e4a3a" opacity="0.68"></path>
<path d="M 23.5 340 C 20.2 263.0 0.3 211.6 1.1 168.8 C 2.5 213.6 25.8 263.0 29.1 340 Z" fill="#0e4a3a" opacity="0.98"></path>
<path d="M 255.0 340 C 249.5 248.5 245.7 187.6 248.4 136.8 C 248.9 189.6 257.6 248.5 263.1 340 Z" fill="#0a2a1a" opacity="0.81"></path>
<path d="M 578.9 340 C 586.4 281.4 598.7 242.4 598.1 209.8 C 602.1 244.4 594.9 281.4 587.4 340 Z" fill="#19543e" opacity="0.88"></path>
<path d="M 1345.1 340 C 1345.6 268.4 1335.1 220.6 1331.6 180.8 C 1337.4 222.6 1351.3 268.4 1350.8 340 Z" fill="#57b07c" opacity="0.69"></path>
<path d="M 978.6 340 C 978.9 262.7 969.6 211.1 971.9 168.2 C 973.5 213.1 988.5 262.7 988.1 340 Z" fill="#2f7350" opacity="0.83"></path>
<path d="M 1297.3 340 C 1291.6 304.4 1287.1 280.7 1290.4 260.9 C 1289.5 282.7 1297.6 304.4 1303.3 340 Z" fill="#0e4a3a" opacity="0.99"></path>
<path d="M 564.8 340 C 568.2 302.2 573.5 276.9 576.7 255.9 C 577.3 278.9 577.9 302.2 574.5 340 Z" fill="#0d3b3e" opacity="0.85"></path>
<path d="M 601.0 340 C 599.0 297.3 593.7 268.8 591.0 245.0 C 596.0 270.8 604.7 297.3 606.7 340 Z" fill="#123d24" opacity="0.69"></path>
<path d="M 1509.9 340 C 1498.7 266.6 1487.6 217.7 1486.0 176.9 C 1490.1 219.7 1504.8 266.6 1516.0 340 Z" fill="#19543e" opacity="0.85"></path>
<path d="M 762.0 340 C 760.4 277.4 758.3 235.7 756.4 201.0 C 762.4 237.7 770.6 277.4 772.2 340 Z" fill="#19543e" opacity="0.92"></path>
<path d="M 1544.7 340 C 1550.6 225.1 1558.0 148.5 1556.9 84.7 C 1560.4 150.5 1556.8 225.1 1550.9 340 Z" fill="#19543e" opacity="0.62"></path>
<path d="M 496.3 340 C 494.2 280.4 498.6 240.7 495.8 207.6 C 502.2 242.7 503.3 280.4 505.4 340 Z" fill="#123d24" opacity="0.65"></path>
<path d="M 519.5 340 C 521.7 258.6 535.5 204.3 534.0 159.0 C 539.3 206.3 531.1 258.6 528.8 340 Z" fill="#1a3a0e" opacity="0.74"></path>
<path d="M 16.1 340 C 16.5 289.6 20.7 256.1 24.0 228.1 C 24.4 258.1 25.7 289.6 25.3 340 Z" fill="#123d24" opacity="0.56"></path>
<path d="M 1246.5 340 C 1246.9 221.6 1232.8 142.6 1233.2 76.8 C 1236.8 144.6 1256.8 221.6 1256.4 340 Z" fill="#0e4a3a" opacity="0.70"></path>
<path d="M 688.6 340 C 689.2 311.5 700.6 292.5 698.5 276.7 C 702.8 294.5 694.7 311.5 694.1 340 Z" fill="#0d3b3e" opacity="0.71"></path>
<path d="M 1604.3 340 C 1597.5 276.2 1590.1 233.6 1590.6 198.2 C 1593.9 235.6 1607.0 276.2 1613.9 340 Z" fill="#0e4a3a" opacity="0.65"></path>
<path d="M 864.4 340 C 865.3 288.6 853.7 254.3 856.4 225.8 C 857.9 256.3 875.8 288.6 874.9 340 Z" fill="#0d3b3e" opacity="0.71"></path>
<path d="M 1062.1 340 C 1064.5 256.5 1080.9 200.9 1079.0 154.5 C 1083.6 202.9 1071.2 256.5 1068.8 340 Z" fill="#123d24" opacity="0.63"></path>
<path d="M 250.7 340 C 255.1 286.9 241.4 251.4 238.8 221.9 C 245.6 253.4 265.7 286.9 261.3 340 Z" fill="#0e4a3a" opacity="0.61"></path>
<path d="M 1168.0 340 C 1176.2 268.4 1193.5 220.7 1193.8 180.9 C 1196.2 222.7 1182.9 268.4 1174.7 340 Z" fill="#19543e" opacity="0.76"></path>
<path d="M 1500.8 340 C 1503.5 272.4 1490.7 227.3 1494.1 189.7 C 1492.3 229.3 1507.6 272.4 1504.9 340 Z" fill="#2f7350" opacity="0.70"></path>
<path d="M 1046.4 340 C 1052.7 246.3 1040.0 183.9 1043.9 131.9 C 1042.6 185.9 1059.1 246.3 1052.7 340 Z" fill="#57b07c" opacity="0.57"></path>
<path d="M 1047.2 340 C 1055.9 283.7 1056.9 246.1 1057.6 214.8 C 1059.9 248.1 1063.4 283.7 1054.7 340 Z" fill="#2f7350" opacity="0.78"></path>
<path d="M 1208.7 340 C 1209.1 313.3 1210.5 295.5 1212.1 280.6 C 1212.9 297.5 1215.3 313.3 1214.9 340 Z" fill="#57b07c" opacity="0.71"></path>
<path d="M 338.9 340 C 342.6 283.8 334.5 246.3 333.2 215.1 C 336.3 248.3 347.3 283.8 343.6 340 Z" fill="#57b07c" opacity="0.59"></path>
<path d="M 1447.1 340 C 1445.3 232.4 1436.2 160.7 1434.1 100.9 C 1438.8 162.7 1451.7 232.4 1453.5 340 Z" fill="#1a3a0e" opacity="0.57"></path>
<path d="M 796.2 340 C 788.9 294.9 779.7 264.9 782.3 239.8 C 781.8 266.9 794.2 294.9 801.5 340 Z" fill="#0d3b3e" opacity="0.78"></path>
<path d="M 462.1 340 C 464.4 314.8 471.1 298.0 471.5 283.9 C 474.7 300.0 473.2 314.8 470.9 340 Z" fill="#1a3a0e" opacity="0.97"></path>
<path d="M 808.0 340 C 814.9 271.2 834.2 225.3 832.1 187.0 C 838.5 227.3 825.7 271.2 818.9 340 Z" fill="#0e4a3a" opacity="0.70"></path>
<path d="M 865.8 340 C 869.9 284.6 859.6 247.7 861.5 217.0 C 863.4 249.7 879.5 284.6 875.4 340 Z" fill="#0e4a3a" opacity="0.86"></path>
<path d="M 1065.0 340 C 1074.7 290.0 1080.4 256.7 1083.4 229.0 C 1084.7 258.7 1085.5 290.0 1075.8 340 Z" fill="#0e4a3a" opacity="0.68"></path>
<path d="M 1072.7 340 C 1092.2 227.4 1112.7 152.3 1109.6 89.7 C 1115.3 154.3 1098.6 227.4 1079.1 340 Z" fill="#0d3b3e" opacity="0.61"></path>
<path d="M 1570.4 340 C 1579.8 244.5 1576.8 180.9 1579.2 127.8 C 1580.4 182.9 1588.7 244.5 1579.3 340 Z" fill="#123d24" opacity="0.70"></path>
<path d="M 179.9 340 C 183.5 294.5 180.8 264.2 182.7 239.0 C 183.0 266.2 189.0 294.5 185.4 340 Z" fill="#19543e" opacity="1.00"></path>
<path d="M 1108.0 340 C 1107.4 272.6 1087.3 227.7 1089.0 190.2 C 1090.5 229.7 1115.3 272.6 1115.9 340 Z" fill="#0a2a1a" opacity="0.82"></path>
<path d="M 215.9 340 C 208.7 258.8 197.6 204.6 194.5 159.5 C 199.8 206.6 214.3 258.8 221.4 340 Z" fill="#2f7350" opacity="0.68"></path>
<path d="M 1007.6 340 C 1009.5 249.1 995.2 188.5 998.1 138.0 C 997.3 190.5 1014.7 249.1 1012.9 340 Z" fill="#0a2a1a" opacity="0.62"></path>
<path d="M 371.1 340 C 377.5 286.6 392.6 250.9 391.6 221.3 C 394.7 252.9 382.9 286.6 376.5 340 Z" fill="#2f7350" opacity="0.77"></path>
<path d="M 991.6 340 C 995.3 301.4 987.7 275.7 986.0 254.2 C 990.8 277.7 1003.1 301.4 999.3 340 Z" fill="#57b07c" opacity="0.93"></path>
<path d="M 543.1 340 C 549.7 276.2 557.5 233.7 557.2 198.3 C 559.4 235.7 554.3 276.2 547.7 340 Z" fill="#0e4a3a" opacity="0.67"></path>
<path d="M 458.5 340 C 464.6 306.0 471.6 283.4 473.2 264.5 C 473.7 285.4 469.7 306.0 463.6 340 Z" fill="#19543e" opacity="0.83"></path>
<path d="M 982.8 340 C 981.5 278.8 974.4 238.0 972.4 204.0 C 978.4 240.0 991.5 278.8 992.8 340 Z" fill="#2f7350" opacity="0.70"></path>
<path d="M 163.7 340 C 160.0 223.5 130.3 145.9 131.4 81.2 C 133.1 147.9 166.9 223.5 170.6 340 Z" fill="#0d3b3e" opacity="0.65"></path>
<path d="M 1346.2 340 C 1347.8 260.4 1339.1 207.3 1342.0 163.0 C 1340.9 209.3 1352.4 260.4 1350.8 340 Z" fill="#2f7350" opacity="0.84"></path>
<path d="M 583.7 340 C 592.6 266.5 596.7 217.4 596.1 176.6 C 598.5 219.4 597.1 266.5 588.2 340 Z" fill="#19543e" opacity="0.88"></path>
<path d="M 950.9 340 C 952.1 315.4 958.9 299.0 960.7 285.3 C 961.1 301.0 957.5 315.4 956.3 340 Z" fill="#57b07c" opacity="0.79"></path>
<path d="M 336.0 340 C 334.2 295.7 323.9 266.2 325.6 241.7 C 327.9 268.2 344.2 295.7 346.0 340 Z" fill="#123d24" opacity="0.94"></path>
<path d="M 1279.4 340 C 1288.7 272.4 1294.8 227.4 1291.0 189.9 C 1298.3 229.4 1297.4 272.4 1288.2 340 Z" fill="#0a2a1a" opacity="0.79"></path>
<path d="M 616.2 340 C 617.3 297.5 622.9 269.1 625.7 245.4 C 624.9 271.1 622.4 297.5 621.3 340 Z" fill="#0d3b3e" opacity="0.73"></path>
<path d="M 334.2 340 C 326.8 289.3 321.5 255.5 320.8 227.4 C 323.3 257.5 331.1 289.3 338.5 340 Z" fill="#0a2a1a" opacity="0.95"></path>
<path d="M 1514.9 340 C 1520.6 245.1 1516.2 181.8 1514.9 129.1 C 1519.2 183.8 1528.1 245.1 1522.4 340 Z" fill="#19543e" opacity="0.85"></path>
<path d="M 1469.7 340 C 1475.1 305.9 1477.2 283.2 1478.6 264.3 C 1479.3 285.2 1480.4 305.9 1475.0 340 Z" fill="#0a2a1a" opacity="0.97"></path>
<path d="M 438.3 340 C 436.8 242.4 434.3 177.4 434.0 123.1 C 436.1 179.4 441.3 242.4 442.8 340 Z" fill="#1a3a0e" opacity="0.80"></path>
<path d="M 681.8 340 C 681.7 279.5 691.2 239.2 688.0 205.6 C 695.5 241.2 692.4 279.5 692.5 340 Z" fill="#19543e" opacity="0.86"></path>
<path d="M 1530.2 340 C 1531.7 278.8 1519.4 238.0 1522.7 204.0 C 1521.3 240.0 1536.5 278.8 1535.0 340 Z" fill="#1a3a0e" opacity="0.90"></path>
<path d="M 1305.8 340 C 1311.9 308.6 1304.2 287.7 1304.6 270.3 C 1307.8 289.7 1320.9 308.6 1314.8 340 Z" fill="#19543e" opacity="0.56"></path>
<path d="M 286.7 340 C 289.8 247.6 287.5 186.1 286.8 134.8 C 289.7 188.1 295.5 247.6 292.4 340 Z" fill="#57b07c" opacity="0.90"></path>
<path d="M 555.7 340 C 559.0 300.8 571.6 274.6 569.1 252.8 C 573.8 276.6 564.5 300.8 561.2 340 Z" fill="#0d3b3e" opacity="0.82"></path>
<path d="M 526.4 340 C 523.6 284.3 529.1 247.2 529.1 216.2 C 531.2 249.2 528.8 284.3 531.6 340 Z" fill="#0a2a1a" opacity="0.81"></path>
<path d="M 971.3 340 C 977.9 258.6 999.1 204.3 995.6 159.1 C 1001.9 206.3 984.8 258.6 978.2 340 Z" fill="#123d24" opacity="0.92"></path>
<path d="M 51.2 340 C 53.3 295.9 53.3 266.5 53.3 242.0 C 55.3 268.5 58.3 295.9 56.2 340 Z" fill="#0e4a3a" opacity="0.55"></path>
<path d="M 395.3 340 C 404.6 270.8 411.9 224.7 415.3 186.3 C 414.9 226.7 412.1 270.8 402.8 340 Z" fill="#0e4a3a" opacity="0.66"></path>
<path d="M 1458.6 340 C 1452.4 302.1 1450.7 276.8 1449.2 255.8 C 1453.0 278.8 1458.4 302.1 1464.5 340 Z" fill="#0d3b3e" opacity="0.61"></path>
<path d="M 52.3 340 C 56.0 309.9 68.3 289.8 64.8 273.1 C 70.8 291.8 62.3 309.9 58.6 340 Z" fill="#123d24" opacity="0.68"></path>
<path d="M 1086.3 340 C 1090.9 244.0 1097.1 180.0 1097.1 126.6 C 1098.9 182.0 1095.4 244.0 1090.8 340 Z" fill="#123d24" opacity="0.90"></path>
<path d="M 583.7 340 C 581.4 266.6 570.7 217.6 567.6 176.9 C 572.8 219.6 586.7 266.6 588.9 340 Z" fill="#123d24" opacity="0.74"></path>
<path d="M 1139.6 340 C 1133.9 286.1 1131.3 250.2 1132.2 220.2 C 1134.3 252.2 1141.5 286.1 1147.2 340 Z" fill="#0e4a3a" opacity="0.90"></path>
<path d="M 33.3 340 C 29.2 279.5 12.0 239.1 14.0 205.5 C 13.8 241.1 33.8 279.5 37.9 340 Z" fill="#57b07c" opacity="0.61"></path>
<path d="M 152.1 340 C 156.0 305.8 169.2 283.1 168.4 264.1 C 172.6 285.1 164.7 305.8 160.7 340 Z" fill="#19543e" opacity="0.61"></path>
<path d="M 618.3 340 C 619.4 288.6 616.0 254.3 616.6 225.7 C 618.3 256.3 625.1 288.6 624.0 340 Z" fill="#0d3b3e" opacity="0.82"></path>
<path d="M 447.2 340 C 451.4 269.6 449.5 222.7 451.1 183.6 C 453.9 224.7 462.4 269.6 458.1 340 Z" fill="#0d3b3e" opacity="0.61"></path>
<path d="M 396.1 340 C 395.1 278.0 382.3 236.6 382.0 202.1 C 385.8 238.6 403.9 278.0 404.9 340 Z" fill="#123d24" opacity="0.75"></path>
<path d="M 238.6 340 C 243.0 301.7 251.5 276.1 253.7 254.8 C 253.4 278.1 247.8 301.7 243.4 340 Z" fill="#0a2a1a" opacity="0.80"></path>
<path d="M 1418.7 340 C 1426.1 288.6 1433.0 254.4 1432.0 225.9 C 1436.3 256.4 1434.3 288.6 1426.9 340 Z" fill="#0e4a3a" opacity="0.80"></path>
<path d="M 400.9 340 C 406.8 307.9 400.5 286.4 401.3 268.6 C 404.0 288.4 415.6 307.9 409.7 340 Z" fill="#19543e" opacity="0.99"></path>
<path d="M 1112.6 340 C 1104.0 276.6 1095.8 234.3 1096.0 199.0 C 1099.5 236.3 1113.2 276.6 1121.9 340 Z" fill="#0d3b3e" opacity="0.77"></path>
<path d="M 525.5 340 C 531.7 280.2 521.2 240.4 522.8 207.2 C 524.6 242.4 540.0 280.2 533.8 340 Z" fill="#57b07c" opacity="0.99"></path>
<path d="M 806.7 340 C 801.1 286.3 793.6 250.5 791.8 220.7 C 795.9 252.5 806.7 286.3 812.4 340 Z" fill="#19543e" opacity="0.94"></path>
<path d="M 134.7 340 C 137.2 293.0 137.8 261.7 135.8 235.5 C 139.6 263.7 141.8 293.0 139.2 340 Z" fill="#123d24" opacity="0.69"></path>
<path d="M 239.6 340 C 242.9 257.6 226.3 202.7 227.3 157.0 C 230.1 204.7 252.3 257.6 249.0 340 Z" fill="#19543e" opacity="0.62"></path>
<path d="M 1129.3 340 C 1132.2 296.4 1128.0 267.4 1125.6 243.2 C 1131.6 269.4 1141.3 296.4 1138.4 340 Z" fill="#0d3b3e" opacity="0.83"></path>
<path d="M 256.8 340 C 255.6 247.6 253.1 186.0 255.6 134.7 C 256.2 188.0 263.2 247.6 264.5 340 Z" fill="#0d3b3e" opacity="0.63"></path>
<path d="M 1121.2 340 C 1118.7 294.2 1114.8 263.7 1114.6 238.3 C 1116.6 265.7 1123.3 294.2 1125.8 340 Z" fill="#1a3a0e" opacity="0.72"></path>
<path d="M 817.2 340 C 816.2 309.4 812.0 289.0 812.4 272.0 C 815.6 291.0 825.2 309.4 826.1 340 Z" fill="#0a2a1a" opacity="0.78"></path>
<path d="M 392.7 340 C 399.2 310.5 396.0 290.8 398.8 274.4 C 399.1 292.8 407.0 310.5 400.4 340 Z" fill="#19543e" opacity="0.89"></path>
<path d="M 104.2 340 C 109.5 294.0 103.6 263.3 100.3 237.7 C 105.8 265.3 115.1 294.0 109.8 340 Z" fill="#2f7350" opacity="0.92"></path>
<path d="M 169.8 340 C 176.9 251.6 197.1 192.7 194.7 143.6 C 200.4 194.7 185.3 251.6 178.2 340 Z" fill="#0d3b3e" opacity="0.95"></path>
<path d="M 364.2 340 C 366.0 293.6 373.7 262.6 370.9 236.8 C 376.5 264.6 373.0 293.6 371.2 340 Z" fill="#57b07c" opacity="0.77"></path>
<path d="M 565.0 340 C 563.4 292.4 550.9 260.7 552.1 234.2 C 554.0 262.7 571.2 292.4 572.7 340 Z" fill="#0a2a1a" opacity="0.83"></path>
<path d="M 1455.8 340 C 1457.6 300.4 1451.2 273.9 1452.2 251.9 C 1455.0 275.9 1467.2 300.4 1465.4 340 Z" fill="#0e4a3a" opacity="0.71"></path>
<path d="M 1023.7 340 C 1037.8 247.3 1043.7 185.6 1045.5 134.1 C 1047.9 187.6 1048.4 247.3 1034.2 340 Z" fill="#123d24" opacity="0.84"></path>
<path d="M 1420.8 340 C 1422.0 265.8 1417.8 216.3 1414.8 175.1 C 1422.1 218.3 1433.0 265.8 1431.7 340 Z" fill="#0d3b3e" opacity="0.81"></path>
<path d="M 344.4 340 C 343.1 267.9 350.6 219.8 349.1 179.8 C 352.4 221.8 347.6 267.9 348.9 340 Z" fill="#0d3b3e" opacity="0.93"></path>
<path d="M 525.4 340 C 533.5 244.1 534.7 180.1 536.4 126.8 C 538.8 182.1 544.0 244.1 535.8 340 Z" fill="#123d24" opacity="0.67"></path>
<path d="M 97.4 340 C 97.2 294.6 90.3 264.3 91.5 239.0 C 92.3 266.3 102.2 294.6 102.4 340 Z" fill="#0e4a3a" opacity="0.97"></path>
<path d="M 400.2 340 C 395.5 251.9 374.8 193.2 377.7 144.3 C 378.6 195.2 404.8 251.9 409.6 340 Z" fill="#0a2a1a" opacity="0.79"></path>
<path d="M 290.9 340 C 294.3 281.9 300.6 243.2 298.4 211.0 C 303.8 245.2 302.5 281.9 299.2 340 Z" fill="#2f7350" opacity="0.71"></path>
<path d="M 542.5 340 C 546.7 300.4 543.7 274.1 542.4 252.1 C 547.9 276.1 557.3 300.4 553.1 340 Z" fill="#19543e" opacity="0.91"></path>
<path d="M 633.4 340 C 628.0 224.8 604.4 148.0 607.9 84.0 C 607.5 150.0 635.7 224.8 641.1 340 Z" fill="#0a2a1a" opacity="0.66"></path>
<path d="M 681.7 340 C 684.4 311.9 678.8 293.2 678.7 277.6 C 681.6 295.2 691.4 311.9 688.7 340 Z" fill="#0e4a3a" opacity="0.60"></path>
<path d="M 500.1 340 C 509.5 302.7 520.0 277.9 516.2 257.2 C 523.7 279.9 518.7 302.7 509.3 340 Z" fill="#0a2a1a" opacity="0.87"></path>
<path d="M 1357.6 340 C 1359.9 286.7 1353.9 251.2 1355.3 221.6 C 1357.5 253.2 1368.7 286.7 1366.4 340 Z" fill="#0e4a3a" opacity="0.95"></path>
<path d="M 1238.7 340 C 1248.4 285.0 1241.3 248.3 1243.6 217.8 C 1245.1 250.3 1257.8 285.0 1248.2 340 Z" fill="#2f7350" opacity="0.93"></path>
<path d="M 1447.4 340 C 1456.0 288.4 1457.8 254.1 1456.2 225.4 C 1459.7 256.1 1460.8 288.4 1452.1 340 Z" fill="#1a3a0e" opacity="1.00"></path>
<path d="M 1407.7 340 C 1409.6 285.7 1411.7 249.5 1412.3 219.3 C 1414.6 251.5 1416.8 285.7 1414.8 340 Z" fill="#123d24" opacity="0.86"></path>
<path d="M 1022.8 340 C 1022.9 283.7 1021.7 246.1 1022.3 214.8 C 1025.0 248.1 1031.1 283.7 1031.0 340 Z" fill="#1a3a0e" opacity="0.83"></path>
<path d="M 1113.8 340 C 1117.7 295.2 1129.9 265.4 1129.9 240.5 C 1132.4 267.4 1124.0 295.2 1120.0 340 Z" fill="#57b07c" opacity="0.90"></path>
<path d="M 1147.3 340 C 1147.2 284.3 1153.4 247.2 1152.8 216.3 C 1157.8 249.2 1158.1 284.3 1158.1 340 Z" fill="#0a2a1a" opacity="0.61"></path>
<path d="M 723.6 340 C 733.5 261.0 737.7 208.4 736.7 164.5 C 740.0 210.4 739.2 261.0 729.3 340 Z" fill="#0e4a3a" opacity="0.67"></path>
<path d="M 640.1 340 C 640.0 265.3 639.2 215.4 636.8 173.9 C 642.5 217.4 648.4 265.3 648.6 340 Z" fill="#19543e" opacity="0.68"></path>
<path d="M 732.2 340 C 728.3 317.9 726.9 303.2 728.7 290.9 C 729.0 305.2 733.4 317.9 737.3 340 Z" fill="#0e4a3a" opacity="0.91"></path>
<path d="M 992.1 340 C 1003.1 260.9 1002.2 208.2 1004.1 164.3 C 1004.2 210.2 1008.0 260.9 997.0 340 Z" fill="#57b07c" opacity="0.83"></path>
<path d="M 253.0 340 C 253.1 277.4 259.4 235.7 256.8 200.9 C 262.5 237.7 260.9 277.4 260.8 340 Z" fill="#0e4a3a" opacity="0.82"></path>
<path d="M 1021.5 340 C 1024.2 313.8 1017.3 296.4 1016.9 281.8 C 1019.2 298.4 1029.0 313.8 1026.3 340 Z" fill="#57b07c" opacity="0.60"></path>
<path d="M 557.8 340 C 570.4 237.7 573.7 169.5 570.2 112.6 C 576.9 171.5 578.4 237.7 565.8 340 Z" fill="#2f7350" opacity="0.98"></path>
<path d="M 1559.8 340 C 1569.7 279.7 1577.7 239.5 1580.7 206.0 C 1581.7 241.5 1579.7 279.7 1569.8 340 Z" fill="#57b07c" opacity="0.82"></path>
<path d="M 1300.2 340 C 1314.4 281.3 1325.0 242.2 1327.1 209.6 C 1329.2 244.2 1325.0 281.3 1310.8 340 Z" fill="#0e4a3a" opacity="0.69"></path>
<path d="M 120.3 340 C 136.0 289.3 145.0 255.5 142.1 227.3 C 149.0 257.5 146.1 289.3 130.4 340 Z" fill="#19543e" opacity="0.82"></path>
<path d="M 548.7 340 C 557.0 280.3 551.0 240.6 548.5 207.4 C 554.8 242.6 566.5 280.3 558.2 340 Z" fill="#0e4a3a" opacity="0.88"></path>
<path d="M 1136.0 340 C 1137.6 318.9 1134.1 304.9 1132.8 293.2 C 1137.2 306.9 1145.3 318.9 1143.6 340 Z" fill="#0a2a1a" opacity="0.84"></path>
<path d="M 838.4 340 C 839.1 248.5 838.6 187.5 834.7 136.6 C 841.2 189.5 845.7 248.5 845.0 340 Z" fill="#57b07c" opacity="0.79"></path>
<path d="M 1414.6 340 C 1413.8 314.0 1408.5 296.7 1412.1 282.3 C 1410.4 298.7 1418.4 314.0 1419.2 340 Z" fill="#57b07c" opacity="0.55"></path>
<path d="M 798.0 340 C 802.8 295.5 802.9 265.9 801.7 241.2 C 805.8 267.9 810.0 295.5 805.3 340 Z" fill="#0e4a3a" opacity="0.55"></path>
<path d="M 82.5 340 C 80.3 309.5 85.5 289.2 87.0 272.3 C 87.5 291.2 85.2 309.5 87.4 340 Z" fill="#1a3a0e" opacity="0.99"></path>
<path d="M 1091.8 340 C 1091.6 299.4 1090.2 272.3 1086.9 249.7 C 1093.6 274.3 1100.2 299.4 1100.4 340 Z" fill="#0e4a3a" opacity="0.65"></path>
<path d="M 1599.1 340 C 1607.6 292.8 1617.0 261.3 1616.9 235.0 C 1620.5 263.3 1616.3 292.8 1607.8 340 Z" fill="#2f7350" opacity="0.68"></path>
<path d="M 635.0 340 C 635.2 297.1 639.0 268.5 640.8 244.7 C 641.6 270.5 641.8 297.1 641.5 340 Z" fill="#2f7350" opacity="0.74"></path>
<path d="M 1001.9 340 C 1002.4 269.4 992.9 222.3 991.3 183.1 C 997.0 224.3 1012.6 269.4 1012.1 340 Z" fill="#2f7350" opacity="0.94"></path>
<path d="M 1331.2 340 C 1340.1 277.0 1335.3 235.0 1334.3 200.1 C 1339.4 237.0 1350.4 277.0 1341.5 340 Z" fill="#0e4a3a" opacity="0.75"></path>
<path d="M 779.1 340 C 786.4 283.3 783.4 245.5 786.7 214.0 C 787.1 247.5 795.7 283.3 788.5 340 Z" fill="#57b07c" opacity="0.64"></path>
<path d="M 1361.6 340 C 1368.3 281.6 1365.8 242.6 1366.7 210.2 C 1368.0 244.6 1373.8 281.6 1367.2 340 Z" fill="#123d24" opacity="0.61"></path>
<path d="M 1106.1 340 C 1116.3 265.2 1127.3 215.4 1129.2 173.8 C 1129.3 217.4 1121.3 265.2 1111.1 340 Z" fill="#0d3b3e" opacity="0.78"></path>
<path d="M 357.3 340 C 366.2 249.5 360.5 189.2 359.6 139.0 C 363.4 191.2 373.4 249.5 364.5 340 Z" fill="#57b07c" opacity="0.85"></path>
<path d="M 1306.8 340 C 1311.4 288.3 1308.4 253.8 1306.9 225.0 C 1310.0 255.8 1315.5 288.3 1310.9 340 Z" fill="#123d24" opacity="0.77"></path>
<path d="M 547.6 340 C 553.2 287.9 566.3 253.1 563.5 224.1 C 570.3 255.1 563.1 287.9 557.5 340 Z" fill="#0d3b3e" opacity="0.78"></path>
<path d="M 204.1 340 C 203.6 299.6 210.6 272.6 207.2 250.1 C 212.4 274.6 208.2 299.6 208.7 340 Z" fill="#57b07c" opacity="0.96"></path>
<path d="M 177.5 340 C 185.1 282.5 184.4 244.2 182.6 212.3 C 186.7 246.2 190.8 282.5 183.2 340 Z" fill="#0a2a1a" opacity="0.87"></path>
<path d="M 278.5 340 C 277.0 298.7 276.3 271.2 277.2 248.2 C 280.4 273.2 287.1 298.7 288.6 340 Z" fill="#0e4a3a" opacity="0.81"></path>
<path d="M 1276.0 340 C 1288.2 281.2 1303.1 242.0 1300.7 209.3 C 1306.9 244.0 1297.7 281.2 1285.4 340 Z" fill="#0e4a3a" opacity="0.71"></path>
<path d="M 749.9 340 C 748.8 314.1 748.3 296.9 748.3 282.5 C 751.9 298.9 757.6 314.1 758.7 340 Z" fill="#0a2a1a" opacity="0.89"></path>
<path d="M 1242.5 340 C 1245.9 304.3 1236.1 280.5 1232.9 260.7 C 1237.9 282.5 1250.3 304.3 1246.9 340 Z" fill="#0a2a1a" opacity="0.74"></path>
<path d="M 751.4 340 C 761.7 297.7 774.5 269.5 771.2 246.0 C 778.7 271.5 772.4 297.7 762.2 340 Z" fill="#19543e" opacity="0.96"></path>
<path d="M 85.8 340 C 85.9 271.0 92.1 225.0 93.5 186.7 C 94.1 227.0 90.9 271.0 90.8 340 Z" fill="#19543e" opacity="0.79"></path>
<path d="M 179.4 340 C 168.3 246.3 148.0 183.8 150.7 131.7 C 150.0 185.8 173.3 246.3 184.4 340 Z" fill="#0e4a3a" opacity="0.96"></path>
<path d="M 971.2 340 C 963.7 248.7 957.8 187.9 959.1 137.1 C 959.5 189.9 967.9 248.7 975.4 340 Z" fill="#0d3b3e" opacity="0.87"></path>
<path d="M 58.3 340 C 65.3 270.1 80.9 223.5 79.6 184.7 C 84.5 225.5 74.3 270.1 67.4 340 Z" fill="#123d24" opacity="0.55"></path>
<path d="M 1369.4 340 C 1378.9 294.8 1375.4 264.7 1376.4 239.7 C 1378.5 266.7 1386.6 294.8 1377.1 340 Z" fill="#1a3a0e" opacity="0.92"></path>
<path d="M 890.6 340 C 893.2 278.9 897.1 238.1 900.1 204.2 C 899.2 240.1 898.4 278.9 895.7 340 Z" fill="#0d3b3e" opacity="0.66"></path>
<path d="M 630.4 340 C 631.2 266.5 621.8 217.4 621.1 176.6 C 625.5 219.4 640.7 266.5 639.8 340 Z" fill="#0a2a1a" opacity="0.60"></path>
<path d="M 616.9 340 C 622.3 302.2 608.9 277.0 609.9 256.1 C 612.4 279.0 631.2 302.2 625.8 340 Z" fill="#19543e" opacity="0.70"></path>
<path d="M 619.7 340 C 628.1 261.8 635.2 209.7 637.2 166.2 C 637.7 211.7 634.4 261.8 626.0 340 Z" fill="#0d3b3e" opacity="0.69"></path>
<path d="M 858.2 340 C 862.2 221.3 858.6 142.1 859.5 76.1 C 862.9 144.1 873.0 221.3 869.0 340 Z" fill="#123d24" opacity="0.86"></path>
<path d="M 1133.8 340 C 1135.4 292.7 1126.2 261.1 1129.1 234.8 C 1128.6 263.1 1141.3 292.7 1139.6 340 Z" fill="#2f7350" opacity="0.76"></path>
<path d="M 869.1 340 C 869.4 281.8 875.2 242.9 872.8 210.6 C 878.8 244.9 878.4 281.8 878.0 340 Z" fill="#1a3a0e" opacity="0.82"></path>
<path d="M 239.9 340 C 245.4 305.5 242.3 282.5 246.0 263.3 C 244.9 284.5 251.9 305.5 246.3 340 Z" fill="#0e4a3a" opacity="0.93"></path>
<path d="M 1525.1 340 C 1521.1 306.4 1516.6 284.1 1520.4 265.4 C 1519.9 286.1 1529.6 306.4 1533.6 340 Z" fill="#57b07c" opacity="0.58"></path>
<path d="M 87.6 340 C 86.1 287.9 97.1 253.2 93.3 224.3 C 99.2 255.2 91.3 287.9 92.9 340 Z" fill="#1a3a0e" opacity="0.82"></path>
<path d="M 677.3 340 C 665.9 252.0 653.6 193.4 651.6 144.5 C 656.3 195.4 672.5 252.0 683.9 340 Z" fill="#2f7350" opacity="0.72"></path>
<path d="M 961.6 340 C 972.2 285.5 971.8 249.2 975.3 219.0 C 974.0 251.2 977.6 285.5 967.0 340 Z" fill="#0d3b3e" opacity="0.91"></path>
<path d="M 937.8 340 C 946.1 313.6 942.9 295.9 946.9 281.3 C 944.7 297.9 950.6 313.6 942.2 340 Z" fill="#57b07c" opacity="0.98"></path>
<path d="M 945.7 340 C 951.7 279.4 940.8 239.0 939.5 205.3 C 943.9 241.0 959.4 279.4 953.4 340 Z" fill="#123d24" opacity="0.56"></path>
<path d="M 1242.7 340 C 1252.3 286.2 1257.0 250.3 1260.4 220.4 C 1261.0 252.3 1262.4 286.2 1252.8 340 Z" fill="#0e4a3a" opacity="0.66"></path>
<path d="M 274.9 340 C 287.1 305.0 289.2 281.6 288.6 262.1 C 293.4 283.6 297.6 305.0 285.5 340 Z" fill="#1a3a0e" opacity="0.68"></path>
<path d="M 902.0 340 C 905.3 290.2 905.9 256.9 908.3 229.3 C 907.5 258.9 909.3 290.2 906.0 340 Z" fill="#0a2a1a" opacity="0.74"></path>
<path d="M 229.1 340 C 226.7 241.5 221.0 175.9 223.9 121.2 C 224.9 177.9 236.5 241.5 238.9 340 Z" fill="#19543e" opacity="0.62"></path>
<path d="M 860.1 340 C 861.8 262.8 843.9 211.4 846.9 168.5 C 847.9 213.4 871.8 262.8 870.1 340 Z" fill="#57b07c" opacity="0.90"></path>
<path d="M 969.8 340 C 966.6 274.6 963.7 231.0 962.0 194.6 C 968.0 233.0 977.6 274.6 980.8 340 Z" fill="#123d24" opacity="0.59"></path>
<path d="M 315.5 340 C 321.3 303.7 315.1 279.5 311.2 259.4 C 317.9 281.5 328.3 303.7 322.6 340 Z" fill="#0d3b3e" opacity="0.85"></path>
<path d="M 3.9 340 C 6.8 315.0 12.3 298.3 9.0 284.3 C 14.9 300.3 13.4 315.0 10.5 340 Z" fill="#0d3b3e" opacity="0.61"></path>
<path d="M 417.8 340 C 432.3 227.0 448.8 151.6 450.3 88.8 C 452.6 153.6 441.7 227.0 427.2 340 Z" fill="#0a2a1a" opacity="0.84"></path>
<path d="M 631.7 340 C 643.5 284.5 647.3 247.4 647.1 216.6 C 651.6 249.4 654.2 284.5 642.4 340 Z" fill="#0a2a1a" opacity="0.92"></path>
<path d="M 262.9 340 C 265.3 280.9 252.6 241.4 254.5 208.6 C 254.6 243.4 270.4 280.9 268.0 340 Z" fill="#0a2a1a" opacity="0.62"></path>
<path d="M 178.6 340 C 187.1 308.9 187.8 288.2 189.9 270.9 C 191.4 290.2 195.9 308.9 187.5 340 Z" fill="#57b07c" opacity="0.81"></path>
<path d="M 336.3 340 C 337.0 263.5 328.0 212.6 331.5 170.1 C 331.3 214.6 345.2 263.5 344.5 340 Z" fill="#1a3a0e" opacity="0.85"></path>
<path d="M 1092.2 340 C 1091.3 279.4 1097.1 238.9 1101.1 205.2 C 1099.2 240.9 1096.6 279.4 1097.5 340 Z" fill="#0d3b3e" opacity="0.59"></path>
<path d="M 973.1 340 C 968.9 312.5 974.1 294.2 970.3 278.9 C 976.2 296.2 974.0 312.5 978.2 340 Z" fill="#1a3a0e" opacity="0.95"></path>
<path d="M 441.6 340 C 438.2 299.4 434.5 272.3 432.4 249.8 C 438.7 274.3 448.7 299.4 452.1 340 Z" fill="#123d24" opacity="0.60"></path>
<path d="M 1132.2 340 C 1126.3 223.5 1111.7 145.9 1111.6 81.2 C 1113.6 147.9 1131.1 223.5 1137.0 340 Z" fill="#0a2a1a" opacity="0.94"></path>
<path d="M 454.5 340 C 462.4 284.7 479.3 247.9 478.1 217.2 C 483.1 249.9 472.0 284.7 464.1 340 Z" fill="#57b07c" opacity="0.84"></path>
<path d="M 964.3 340 C 962.6 263.4 957.4 212.3 954.2 169.7 C 961.5 214.3 973.0 263.4 974.7 340 Z" fill="#57b07c" opacity="0.57"></path>
<path d="M 498.6 340 C 512.3 241.3 516.1 175.5 517.7 120.7 C 519.1 177.5 519.8 241.3 506.1 340 Z" fill="#123d24" opacity="0.67"></path>
<path d="M 33.1 340 C 47.4 284.1 56.4 246.8 54.5 215.8 C 60.7 248.8 58.2 284.1 43.9 340 Z" fill="#1a3a0e" opacity="0.89"></path>
<path d="M 498.8 340 C 504.0 288.8 514.1 254.7 514.9 226.2 C 515.9 256.7 508.5 288.8 503.2 340 Z" fill="#19543e" opacity="0.97"></path>
<path d="M 1532.9 340 C 1538.1 289.4 1546.2 255.7 1548.9 227.6 C 1548.9 257.7 1544.9 289.4 1539.6 340 Z" fill="#1a3a0e" opacity="0.96"></path>
<path d="M 325.4 340 C 325.1 303.5 313.1 279.1 316.1 258.8 C 314.8 281.1 329.4 303.5 329.6 340 Z" fill="#0e4a3a" opacity="0.73"></path>
<path d="M 1108.7 340 C 1113.3 264.8 1121.2 214.6 1120.4 172.8 C 1123.5 216.6 1119.1 264.8 1114.4 340 Z" fill="#57b07c" opacity="0.60"></path>
<path d="M 687.7 340 C 691.6 268.6 684.8 221.1 686.7 181.4 C 687.5 223.1 698.4 268.6 694.4 340 Z" fill="#0e4a3a" opacity="0.61"></path>
<path d="M 382.9 340 C 387.1 312.9 373.9 294.8 377.5 279.7 C 375.8 296.8 391.8 312.9 387.6 340 Z" fill="#0d3b3e" opacity="0.76"></path>
<path d="M 410.1 340 C 414.1 275.5 396.1 232.4 396.4 196.6 C 399.9 234.4 423.4 275.5 419.4 340 Z" fill="#123d24" opacity="0.62"></path>
<path d="M 896.6 340 C 907.6 297.5 916.2 269.2 916.2 245.6 C 919.6 271.2 916.1 297.5 905.0 340 Z" fill="#0a2a1a" opacity="0.83"></path>
<path d="M 951.0 340 C 949.3 296.6 956.6 267.7 955.1 243.6 C 959.5 269.7 956.6 296.6 958.3 340 Z" fill="#1a3a0e" opacity="0.69"></path>
<path d="M 285.2 340 C 280.2 247.6 264.7 186.0 266.4 134.7 C 267.1 188.0 286.3 247.6 291.4 340 Z" fill="#123d24" opacity="0.97"></path>
<path d="M 591.0 340 C 590.4 300.9 591.5 274.8 593.0 253.1 C 593.9 276.8 596.5 300.9 597.1 340 Z" fill="#2f7350" opacity="0.61"></path>
<path d="M 284.7 340 C 285.6 280.6 291.7 241.0 295.7 208.0 C 293.5 243.0 290.0 280.6 289.1 340 Z" fill="#1a3a0e" opacity="0.88"></path>
<path d="M 212.7 340 C 213.6 244.0 200.8 180.0 200.6 126.7 C 204.3 182.0 222.3 244.0 221.5 340 Z" fill="#0e4a3a" opacity="0.90"></path>
<path d="M 75.7 340 C 69.8 257.6 53.9 202.7 57.8 157.0 C 56.9 204.7 77.2 257.6 83.2 340 Z" fill="#19543e" opacity="0.72"></path>
<path d="M 112.4 340 C 104.8 265.6 90.5 216.1 90.2 174.7 C 94.1 218.1 113.9 265.6 121.4 340 Z" fill="#57b07c" opacity="0.68"></path>
<path d="M 814.3 340 C 823.3 312.1 821.5 293.5 818.0 278.0 C 825.7 295.5 833.6 312.1 824.7 340 Z" fill="#0a2a1a" opacity="0.56"></path>
<path d="M 270.8 340 C 256.0 228.4 238.2 154.1 236.8 92.1 C 241.7 156.1 264.7 228.4 279.6 340 Z" fill="#57b07c" opacity="0.63"></path>
<path d="M 173.3 340 C 187.8 278.8 193.7 237.9 194.3 203.9 C 196.0 239.9 193.6 278.8 179.2 340 Z" fill="#0e4a3a" opacity="0.79"></path>
<path d="M 235.6 340 C 237.4 262.6 232.3 211.0 232.5 168.0 C 236.0 213.0 246.7 262.6 244.9 340 Z" fill="#2f7350" opacity="0.89"></path>
<path d="M 543.7 340 C 548.5 269.7 543.9 222.8 544.1 183.8 C 547.4 224.8 557.2 269.7 552.4 340 Z" fill="#0d3b3e" opacity="0.96"></path>
<path d="M 541.4 340 C 534.3 227.1 504.8 151.8 506.6 89.0 C 507.0 153.8 539.8 227.1 546.9 340 Z" fill="#57b07c" opacity="0.95"></path>
<path d="M 27.8 340 C 19.3 222.7 9.8 144.4 10.2 79.2 C 11.9 146.4 24.5 222.7 33.0 340 Z" fill="#19543e" opacity="0.94"></path>
<path d="M 858.3 340 C 873.6 272.1 875.3 226.8 878.3 189.0 C 879.3 228.8 883.6 272.1 868.3 340 Z" fill="#123d24" opacity="0.97"></path>
<path d="M 886.0 340 C 896.7 303.6 886.9 279.4 890.6 259.2 C 890.8 281.4 906.5 303.6 895.8 340 Z" fill="#0a2a1a" opacity="0.85"></path>
<path d="M 182.7 340 C 188.7 230.8 203.9 158.1 203.7 97.4 C 206.9 160.1 196.3 230.8 190.4 340 Z" fill="#0d3b3e" opacity="0.62"></path>
<path d="M 1484.6 340 C 1487.6 275.8 1498.3 233.0 1497.2 197.3 C 1502.7 235.0 1498.4 275.8 1495.3 340 Z" fill="#123d24" opacity="0.70"></path>
<path d="M 14.7 340 C 13.3 266.6 9.1 217.6 8.2 176.8 C 13.3 219.6 23.8 266.6 25.2 340 Z" fill="#1a3a0e" opacity="0.77"></path>
<path d="M 938.3 340 C 937.3 311.2 941.2 292.1 937.5 276.1 C 942.9 294.1 941.5 311.2 942.6 340 Z" fill="#0e4a3a" opacity="0.62"></path>
<path d="M 1076.2 340 C 1090.6 260.1 1097.3 206.8 1096.9 162.4 C 1101.1 208.8 1100.0 260.1 1085.6 340 Z" fill="#57b07c" opacity="0.93"></path>
<path d="M 647.1 340 C 643.7 273.4 646.3 229.0 646.0 192.1 C 648.6 231.0 649.4 273.4 652.9 340 Z" fill="#0e4a3a" opacity="0.96"></path>
<path d="M 1281.7 340 C 1278.6 266.8 1260.3 218.0 1263.1 177.3 C 1263.4 220.0 1286.4 266.8 1289.4 340 Z" fill="#0a2a1a" opacity="0.81"></path>
<path d="M 947.1 340 C 947.4 284.3 938.0 247.2 935.3 216.2 C 941.0 249.2 955.1 284.3 954.8 340 Z" fill="#1a3a0e" opacity="0.58"></path>
<path d="M 1345.1 340 C 1356.4 291.1 1358.0 258.5 1358.8 231.3 C 1361.5 260.5 1365.3 291.1 1354.0 340 Z" fill="#0a2a1a" opacity="0.78"></path>
<path d="M 176.1 340 C 183.8 272.3 203.6 227.2 201.0 189.6 C 206.0 229.2 189.7 272.3 182.0 340 Z" fill="#123d24" opacity="0.63"></path>
<path d="M 1542.9 340 C 1553.8 261.8 1566.9 209.7 1570.9 166.3 C 1568.8 211.7 1558.5 261.8 1547.7 340 Z" fill="#0a2a1a" opacity="0.59"></path>
<path d="M 849.4 340 C 854.1 252.6 867.7 194.3 869.6 145.7 C 870.1 196.3 860.2 252.6 855.5 340 Z" fill="#123d24" opacity="0.93"></path>
<path d="M 1583.5 340 C 1588.2 272.0 1574.8 226.6 1572.6 188.9 C 1578.0 228.6 1596.3 272.0 1591.6 340 Z" fill="#0a2a1a" opacity="0.66"></path>
<path d="M 636.9 340 C 643.5 254.1 637.4 196.9 641.3 149.1 C 639.2 198.9 648.0 254.1 641.4 340 Z" fill="#0a2a1a" opacity="0.64"></path>
<path d="M 1462.7 340 C 1463.6 278.3 1464.8 237.1 1463.3 202.8 C 1468.5 239.1 1473.0 278.3 1472.1 340 Z" fill="#1a3a0e" opacity="0.67"></path>
<path d="M 697.9 340 C 703.2 289.6 700.2 256.0 697.6 228.0 C 704.2 258.0 713.2 289.6 707.9 340 Z" fill="#123d24" opacity="0.96"></path>
<path d="M 17.4 340 C 29.6 313.6 27.4 296.0 30.1 281.3 C 31.3 298.0 39.3 313.6 27.1 340 Z" fill="#19543e" opacity="0.78"></path>
<path d="M 1104.0 340 C 1105.1 251.2 1100.0 192.0 1101.9 142.6 C 1101.9 194.0 1109.7 251.2 1108.6 340 Z" fill="#0a2a1a" opacity="0.70"></path>
<path d="M 524.6 340 C 546.1 230.5 565.6 157.5 561.8 96.7 C 569.6 159.5 556.0 230.5 534.5 340 Z" fill="#123d24" opacity="0.65"></path>
<path d="M 872.0 340 C 869.0 272.5 869.0 227.4 872.0 189.9 C 872.8 229.4 878.4 272.5 881.3 340 Z" fill="#2f7350" opacity="0.72"></path>
<path d="M 83.6 340 C 76.5 237.7 70.9 169.5 74.6 112.7 C 72.6 171.5 80.8 237.7 88.0 340 Z" fill="#57b07c" opacity="0.82"></path>
<path d="M 615.2 340 C 631.9 272.8 640.0 228.0 639.7 190.7 C 643.6 230.0 641.0 272.8 624.3 340 Z" fill="#0d3b3e" opacity="0.70"></path>
<path d="M 1490.3 340 C 1496.3 277.8 1508.6 236.4 1510.1 201.8 C 1511.9 238.4 1504.5 277.8 1498.5 340 Z" fill="#19543e" opacity="0.77"></path>
<path d="M 235.1 340 C 239.3 292.4 236.0 260.6 235.8 234.1 C 238.4 262.6 245.4 292.4 241.2 340 Z" fill="#123d24" opacity="0.82"></path>
<path d="M 1439.4 340 C 1446.3 255.8 1452.0 199.7 1448.3 153.0 C 1455.5 201.7 1455.1 255.8 1448.2 340 Z" fill="#1a3a0e" opacity="0.80"></path>
<path d="M 834.0 340 C 827.8 302.0 824.9 276.6 823.2 255.5 C 827.3 278.6 833.8 302.0 840.0 340 Z" fill="#0e4a3a" opacity="0.79"></path>
<path d="M 1003.1 340 C 1000.9 287.4 1003.9 252.4 1001.2 223.2 C 1006.2 254.4 1006.7 287.4 1008.9 340 Z" fill="#0a2a1a" opacity="0.65"></path>
<path d="M 85.8 340 C 90.8 268.3 102.1 220.4 103.5 180.6 C 105.3 222.4 98.9 268.3 94.0 340 Z" fill="#123d24" opacity="0.74"></path>
<path d="M 1588.8 340 C 1595.9 248.3 1599.6 187.2 1598.8 136.3 C 1602.9 189.2 1604.2 248.3 1597.2 340 Z" fill="#2f7350" opacity="0.75"></path>
<path d="M 247.3 340 C 243.9 243.4 233.6 178.9 235.2 125.2 C 235.3 180.9 248.2 243.4 251.7 340 Z" fill="#2f7350" opacity="0.68"></path>
<path d="M 1498.9 340 C 1505.6 260.4 1511.5 207.3 1510.6 163.1 C 1514.0 209.3 1511.8 260.4 1505.1 340 Z" fill="#0d3b3e" opacity="0.80"></path>
<path d="M 1354.3 340 C 1363.4 263.8 1369.1 213.0 1366.4 170.7 C 1371.4 215.0 1369.2 263.8 1360.1 340 Z" fill="#0d3b3e" opacity="0.74"></path>
<path d="M 199.5 340 C 210.0 246.7 207.4 184.5 205.8 132.6 C 210.7 186.5 218.4 246.7 207.9 340 Z" fill="#2f7350" opacity="0.86"></path>
<path d="M 984.8 340 C 997.6 279.8 994.7 239.6 997.7 206.2 C 997.8 241.6 1005.3 279.8 992.6 340 Z" fill="#57b07c" opacity="0.87"></path>
<path d="M 461.5 340 C 463.4 287.7 471.1 252.9 470.5 223.9 C 473.3 254.9 469.0 287.7 467.2 340 Z" fill="#123d24" opacity="0.73"></path>
<path d="M 1312.6 340 C 1322.5 285.1 1320.8 248.5 1320.2 218.0 C 1323.4 250.5 1329.0 285.1 1319.1 340 Z" fill="#57b07c" opacity="0.60"></path>
<path d="M 1492.7 340 C 1500.9 313.0 1493.3 295.1 1496.2 280.1 C 1495.4 297.1 1505.9 313.0 1497.7 340 Z" fill="#1a3a0e" opacity="0.96"></path>
<path d="M 1419.6 340 C 1423.2 289.5 1412.6 255.9 1410.2 227.9 C 1416.2 257.9 1432.1 289.5 1428.6 340 Z" fill="#0a2a1a" opacity="0.65"></path>
<path d="M 641.0 340 C 646.0 272.3 641.7 227.2 644.2 189.6 C 643.3 229.2 650.1 272.3 645.1 340 Z" fill="#0e4a3a" opacity="0.83"></path>
<path d="M 441.7 340 C 458.0 244.0 466.5 180.0 466.4 126.6 C 470.0 182.0 466.8 244.0 450.5 340 Z" fill="#123d24" opacity="0.66"></path>
<path d="M 109.8 340 C 114.8 279.1 131.6 238.5 129.7 204.6 C 133.3 240.5 119.1 279.1 114.1 340 Z" fill="#0e4a3a" opacity="0.93"></path>
<path d="M 539.0 340 C 548.3 305.2 549.4 281.9 546.0 262.6 C 551.2 283.9 552.8 305.2 543.5 340 Z" fill="#2f7350" opacity="0.75"></path>
<path d="M 1013.1 340 C 1019.7 311.8 1027.3 293.0 1024.8 277.3 C 1031.6 295.0 1030.2 311.8 1023.6 340 Z" fill="#2f7350" opacity="0.76"></path>
<path d="M 562.5 340 C 562.9 316.4 560.9 300.6 561.6 287.5 C 564.3 302.6 571.3 316.4 570.9 340 Z" fill="#0d3b3e" opacity="0.65"></path>
<path d="M 1268.1 340 C 1282.2 263.4 1283.9 212.3 1286.0 169.8 C 1287.4 214.3 1290.9 263.4 1276.9 340 Z" fill="#123d24" opacity="0.60"></path>
<path d="M 1449.1 340 C 1454.8 285.3 1473.0 248.9 1469.7 218.6 C 1476.5 250.9 1463.3 285.3 1457.6 340 Z" fill="#1a3a0e" opacity="0.77"></path>
<path d="M 520.8 340 C 525.8 296.9 527.0 268.1 529.1 244.2 C 530.3 270.1 533.9 296.9 528.8 340 Z" fill="#19543e" opacity="0.69"></path>
<path d="M 1596.2 340 C 1595.6 286.6 1602.8 251.0 1599.8 221.3 C 1604.7 253.0 1600.4 286.6 1601.0 340 Z" fill="#2f7350" opacity="0.66"></path>
<path d="M 1141.5 340 C 1144.5 302.3 1134.0 277.1 1134.4 256.1 C 1136.2 279.1 1150.0 302.3 1147.0 340 Z" fill="#19543e" opacity="0.56"></path>
<path d="M 32.0 340 C 36.5 304.8 23.1 281.3 24.6 261.7 C 27.2 283.3 46.7 304.8 42.3 340 Z" fill="#57b07c" opacity="0.60"></path>
<path d="M 447.2 340 C 441.4 254.8 425.7 198.0 424.4 150.6 C 429.6 200.0 451.1 254.8 456.9 340 Z" fill="#57b07c" opacity="0.90"></path>
<path d="M 65.0 340 C 77.4 244.9 94.8 181.5 94.8 128.6 C 96.4 183.5 81.5 244.9 69.1 340 Z" fill="#0d3b3e" opacity="0.99"></path>
<path d="M 193.2 340 C 201.0 266.8 192.3 218.0 194.0 177.3 C 194.7 220.0 207.0 266.8 199.2 340 Z" fill="#19543e" opacity="0.98"></path>
<path d="M 1584.9 340 C 1582.3 303.7 1582.6 279.4 1582.4 259.2 C 1585.4 281.4 1589.3 303.7 1591.8 340 Z" fill="#0d3b3e" opacity="0.97"></path>
<path d="M 843.3 340 C 841.2 265.0 827.5 215.0 830.4 173.4 C 829.9 217.0 847.2 265.0 849.3 340 Z" fill="#0a2a1a" opacity="0.95"></path>
<path d="M 280.2 340 C 276.7 287.2 271.2 252.0 268.6 222.6 C 275.1 254.0 286.5 287.2 290.0 340 Z" fill="#57b07c" opacity="0.65"></path>
<path d="M 539.7 340 C 542.9 303.7 547.5 279.5 548.3 259.3 C 549.3 281.5 547.4 303.7 544.2 340 Z" fill="#0a2a1a" opacity="0.71"></path>
<path d="M 649.2 340 C 658.4 301.7 656.6 276.1 659.9 254.8 C 659.2 278.1 664.8 301.7 655.6 340 Z" fill="#57b07c" opacity="0.84"></path>
<path d="M 1128.6 340 C 1119.3 266.0 1108.9 216.7 1109.8 175.6 C 1112.6 218.7 1128.5 266.0 1137.8 340 Z" fill="#0a2a1a" opacity="0.72"></path>
<path d="M 1380.7 340 C 1382.0 276.0 1369.0 233.4 1372.9 197.9 C 1372.7 235.4 1391.1 276.0 1389.8 340 Z" fill="#0d3b3e" opacity="0.97"></path>
<path d="M 1104.8 340 C 1106.9 220.8 1112.3 141.3 1112.4 75.0 C 1115.9 143.3 1115.8 220.8 1113.7 340 Z" fill="#19543e" opacity="0.88"></path>
<path d="M 26.0 340 C 11.3 234.0 -9.5 163.4 -6.5 104.5 C -6.6 165.4 18.6 234.0 33.3 340 Z" fill="#1a3a0e" opacity="0.84"></path>
<path d="M 307.7 340 C 315.0 275.0 336.8 231.7 333.3 195.5 C 338.9 233.7 320.3 275.0 313.0 340 Z" fill="#1a3a0e" opacity="0.82"></path>
<path d="M 922.1 340 C 922.4 312.1 916.3 293.5 920.2 278.0 C 920.5 295.5 932.9 312.1 932.7 340 Z" fill="#123d24" opacity="0.64"></path>
<path d="M 1501.8 340 C 1504.7 305.2 1508.0 281.9 1507.9 262.6 C 1512.1 283.9 1515.0 305.2 1512.0 340 Z" fill="#0e4a3a" opacity="0.91"></path>
<path d="M 676.7 340 C 688.9 286.3 699.3 250.6 695.4 220.7 C 703.1 252.6 698.3 286.3 686.2 340 Z" fill="#1a3a0e" opacity="0.90"></path>
<path d="M 990.9 340 C 990.6 212.2 986.9 127.0 986.6 56.0 C 990.2 129.0 998.7 212.2 999.0 340 Z" fill="#57b07c" opacity="0.75"></path>
<path d="M 447.1 340 C 452.9 298.4 457.3 270.6 453.4 247.5 C 461.4 272.6 463.1 298.4 457.3 340 Z" fill="#19543e" opacity="0.57"></path>
<path d="M 569.9 340 C 574.4 302.3 566.8 277.1 570.0 256.2 C 570.7 279.1 584.2 302.3 579.7 340 Z" fill="#2f7350" opacity="0.89"></path>
<path d="M 1307.2 340 C 1314.5 242.2 1324.0 177.0 1320.4 122.7 C 1327.0 179.0 1322.0 242.2 1314.7 340 Z" fill="#0e4a3a" opacity="0.78"></path>
<path d="M 1343.9 340 C 1352.7 282.3 1346.0 243.8 1349.0 211.7 C 1350.4 245.8 1363.5 282.3 1354.7 340 Z" fill="#123d24" opacity="0.83"></path>
<path d="M 967.3 340 C 987.8 242.2 1002.5 177.0 1002.5 122.7 C 1006.2 179.0 997.0 242.2 976.5 340 Z" fill="#0e4a3a" opacity="0.94"></path>
<path d="M 1325.6 340 C 1336.7 239.1 1339.8 171.8 1338.4 115.8 C 1341.7 173.8 1341.3 239.1 1330.1 340 Z" fill="#123d24" opacity="0.83"></path>
<path d="M 338.0 340 C 335.1 267.6 318.7 219.3 321.4 179.0 C 322.7 221.3 345.1 267.6 348.0 340 Z" fill="#57b07c" opacity="0.97"></path>
<path d="M 849.4 340 C 847.6 273.0 840.1 228.3 840.1 191.0 C 844.3 230.3 858.1 273.0 859.8 340 Z" fill="#0a2a1a" opacity="0.61"></path>
<path d="M 767.3 340 C 777.5 304.0 785.2 280.0 783.7 260.1 C 789.1 282.0 787.2 304.0 777.0 340 Z" fill="#1a3a0e" opacity="0.97"></path>
<path d="M 253.8 340 C 253.2 288.5 256.9 254.2 254.6 225.5 C 261.0 256.2 263.5 288.5 264.1 340 Z" fill="#0e4a3a" opacity="0.59"></path>
<path d="M 1202.9 340 C 1204.9 287.0 1212.4 251.6 1208.9 222.1 C 1216.8 253.6 1215.8 287.0 1213.8 340 Z" fill="#0e4a3a" opacity="0.82"></path>
<path d="M 383.6 340 C 382.1 266.4 381.3 217.3 378.3 176.4 C 385.1 219.3 391.6 266.4 393.1 340 Z" fill="#57b07c" opacity="0.74"></path>
<path d="M 690.9 340 C 679.0 249.1 664.5 188.6 666.2 138.1 C 666.5 190.6 684.0 249.1 696.0 340 Z" fill="#57b07c" opacity="0.66"></path>
<path d="M 514.0 340 C 522.1 279.0 527.0 238.3 528.2 204.4 C 529.0 240.3 527.1 279.0 519.0 340 Z" fill="#0e4a3a" opacity="0.66"></path>
<path d="M 70.7 340 C 72.7 298.9 78.7 271.6 79.0 248.8 C 80.6 273.6 77.3 298.9 75.3 340 Z" fill="#0e4a3a" opacity="0.56"></path>
<path d="M 1531.1 340 C 1536.7 313.1 1533.0 295.2 1532.6 280.2 C 1534.9 297.2 1541.5 313.1 1535.9 340 Z" fill="#0e4a3a" opacity="0.81"></path>
<path d="M 1235.1 340 C 1245.9 257.1 1243.4 201.9 1247.3 155.9 C 1247.5 203.9 1256.1 257.1 1245.3 340 Z" fill="#0a2a1a" opacity="0.62"></path>
<path d="M 1096.3 340 C 1108.7 252.7 1104.7 194.5 1105.7 146.0 C 1109.1 196.5 1119.7 252.7 1107.3 340 Z" fill="#19543e" opacity="0.73"></path>
<path d="M 1078.6 340 C 1081.4 289.2 1065.3 255.4 1065.7 227.2 C 1069.6 257.4 1092.1 289.2 1089.4 340 Z" fill="#57b07c" opacity="0.95"></path>
<path d="M 729.5 340 C 738.7 276.6 757.8 234.4 754.9 199.2 C 759.7 236.4 743.4 276.6 734.2 340 Z" fill="#123d24" opacity="0.86"></path>
<path d="M 952.2 340 C 949.8 314.6 948.6 297.7 951.9 283.6 C 952.8 299.7 960.4 314.6 962.7 340 Z" fill="#1a3a0e" opacity="0.68"></path>
<path d="M 532.0 340 C 532.3 303.5 537.7 279.1 535.3 258.8 C 541.6 281.1 542.2 303.5 541.9 340 Z" fill="#0a2a1a" opacity="0.73"></path>
<path d="M 505.5 340 C 516.0 265.4 530.1 215.7 528.4 174.2 C 534.2 217.7 526.2 265.4 515.7 340 Z" fill="#123d24" opacity="0.70"></path>
<path d="M 697.9 340 C 700.9 275.2 678.3 232.0 681.3 196.0 C 682.4 234.0 711.2 275.2 708.1 340 Z" fill="#2f7350" opacity="0.61"></path>
<path d="M 1192.9 340 C 1193.4 239.3 1185.9 172.2 1188.2 116.2 C 1189.6 174.2 1202.6 239.3 1202.1 340 Z" fill="#0a2a1a" opacity="0.66"></path>
<path d="M 821.5 340 C 830.7 261.4 837.8 209.0 840.2 165.3 C 839.5 211.0 834.9 261.4 825.6 340 Z" fill="#0a2a1a" opacity="0.93"></path>
<path d="M 1242.1 340 C 1241.0 270.0 1229.9 223.4 1232.1 184.5 C 1232.2 225.4 1246.8 270.0 1247.9 340 Z" fill="#0d3b3e" opacity="0.60"></path>
<path d="M 541.7 340 C 541.0 235.6 521.4 166.1 524.8 108.1 C 524.3 168.1 548.2 235.6 548.8 340 Z" fill="#0d3b3e" opacity="0.78"></path>
<path d="M 643.0 340 C 644.8 271.3 625.0 225.5 628.0 187.4 C 627.8 227.5 651.9 271.3 650.1 340 Z" fill="#19543e" opacity="0.95"></path>
<path d="M 1.6 340 C 1.4 310.7 6.5 291.1 8.9 274.8 C 9.1 293.1 7.9 310.7 8.1 340 Z" fill="#19543e" opacity="0.68"></path>
<path d="M 191.2 340 C 191.9 293.5 195.9 262.4 197.4 236.6 C 198.8 264.4 199.2 293.5 198.5 340 Z" fill="#0e4a3a" opacity="0.71"></path>
<path d="M 1511.2 340 C 1510.2 280.9 1510.7 241.5 1509.1 208.6 C 1515.0 243.5 1520.7 280.9 1521.7 340 Z" fill="#19543e" opacity="0.65"></path>
<path d="M -9.0 340 C -9.1 282.4 -1.2 244.0 -2.1 212.0 C 1.8 246.0 -1.5 282.4 -1.4 340 Z" fill="#0d3b3e" opacity="0.86"></path>
<path d="M 469.7 340 C 478.1 246.8 487.6 184.7 490.5 132.9 C 490.5 186.7 485.2 246.8 476.9 340 Z" fill="#123d24" opacity="0.63"></path>
<path d="M 255.7 340 C 260.4 274.6 249.4 231.0 251.8 194.7 C 251.6 233.0 265.9 274.6 261.2 340 Z" fill="#0d3b3e" opacity="0.85"></path>
<path d="M 1320.3 340 C 1320.7 229.3 1301.4 155.6 1299.6 94.1 C 1304.3 157.6 1328.1 229.3 1327.7 340 Z" fill="#0e4a3a" opacity="0.56"></path>
<path d="M 174.5 340 C 174.1 267.3 177.9 218.8 181.0 178.4 C 180.9 220.8 181.5 267.3 181.9 340 Z" fill="#0d3b3e" opacity="0.85"></path>
<path d="M 36.2 340 C 31.3 234.8 18.1 164.7 17.3 106.3 C 20.1 166.7 36.4 234.8 41.3 340 Z" fill="#0d3b3e" opacity="0.98"></path>
<path d="M 893.6 340 C 893.8 261.1 896.0 208.4 900.0 164.6 C 897.9 210.4 898.4 261.1 898.2 340 Z" fill="#57b07c" opacity="0.84"></path>
<path d="M 738.4 340 C 736.5 239.9 712.6 173.2 711.5 117.6 C 715.4 175.2 743.4 239.9 745.3 340 Z" fill="#19543e" opacity="0.90"></path>
<path d="M 388.2 340 C 393.3 304.4 405.1 280.7 401.6 260.9 C 408.8 282.7 402.3 304.4 397.3 340 Z" fill="#0d3b3e" opacity="0.62"></path>
<path d="M 163.1 340 C 159.9 298.5 154.3 270.8 155.5 247.7 C 156.5 272.8 165.5 298.5 168.6 340 Z" fill="#19543e" opacity="0.67"></path>
<path d="M 1009.5 340 C 1010.8 308.1 1021.3 286.8 1021.8 269.1 C 1024.6 288.8 1019.3 308.1 1018.0 340 Z" fill="#0e4a3a" opacity="0.57"></path>
<path d="M 799.3 340 C 805.9 297.7 797.9 269.5 800.4 246.0 C 801.4 271.5 814.5 297.7 808.0 340 Z" fill="#0e4a3a" opacity="0.92"></path>
<path d="M 57.4 340 C 65.2 282.2 51.4 243.7 54.8 211.6 C 55.6 245.7 75.9 282.2 68.1 340 Z" fill="#0e4a3a" opacity="0.87"></path>
<path d="M 974.0 340 C 981.9 281.8 973.7 243.0 975.5 210.7 C 976.9 245.0 989.8 281.8 981.9 340 Z" fill="#19543e" opacity="0.94"></path>
<path d="M 1587.6 340 C 1599.8 231.0 1610.2 158.4 1607.5 97.9 C 1613.7 160.4 1608.4 231.0 1596.1 340 Z" fill="#0d3b3e" opacity="0.72"></path>
<path d="M 50.0 340 C 47.7 280.4 50.2 240.6 48.6 207.5 C 52.6 242.6 53.7 280.4 56.0 340 Z" fill="#2f7350" opacity="0.80"></path>
<path d="M 829.5 340 C 839.1 249.3 838.1 188.8 838.4 138.4 C 842.5 190.8 850.0 249.3 840.4 340 Z" fill="#2f7350" opacity="0.86"></path>
<path d="M 497.5 340 C 499.5 286.7 494.8 251.1 497.3 221.5 C 498.5 253.1 508.8 286.7 506.8 340 Z" fill="#0a2a1a" opacity="0.59"></path>
<path d="M 1144.5 340 C 1138.1 246.8 1126.9 184.7 1127.5 133.0 C 1129.0 186.7 1143.2 246.8 1149.6 340 Z" fill="#0d3b3e" opacity="0.66"></path>
<path d="M 705.7 340 C 708.7 285.5 726.0 249.2 722.1 218.9 C 728.7 251.2 715.4 285.5 712.3 340 Z" fill="#1a3a0e" opacity="0.93"></path>
<path d="M 673.0 340 C 675.3 291.0 679.2 258.3 675.3 231.1 C 683.0 260.3 684.6 291.0 682.4 340 Z" fill="#1a3a0e" opacity="0.96"></path>
<path d="M 314.3 340 C 323.0 270.5 323.5 224.2 326.6 185.6 C 327.1 226.2 331.8 270.5 323.2 340 Z" fill="#1a3a0e" opacity="0.56"></path>
<path d="M 244.5 340 C 250.8 265.7 245.6 216.1 244.1 174.8 C 248.5 218.1 258.1 265.7 251.8 340 Z" fill="#19543e" opacity="0.97"></path>
<path d="M 317.5 340 C 308.8 290.4 304.4 257.3 304.2 229.7 C 306.1 259.3 313.1 290.4 321.8 340 Z" fill="#57b07c" opacity="0.79"></path>
<path d="M 86.9 340 C 83.0 293.3 80.6 262.1 80.8 236.2 C 82.5 264.1 87.9 293.3 91.7 340 Z" fill="#123d24" opacity="0.69"></path>
<path d="M 681.4 340 C 678.3 294.3 672.1 263.8 672.7 238.4 C 674.5 265.8 684.2 294.3 687.4 340 Z" fill="#0a2a1a" opacity="0.59"></path>
<path d="M 712.7 340 C 718.0 291.4 708.5 258.9 709.4 231.9 C 710.2 260.9 722.3 291.4 716.9 340 Z" fill="#57b07c" opacity="0.93"></path>
<path d="M 235.5 340 C 242.2 308.8 252.1 288.1 248.4 270.8 C 254.6 290.1 248.3 308.8 241.6 340 Z" fill="#57b07c" opacity="0.72"></path>
<path d="M 1034.2 340 C 1047.0 305.3 1046.4 282.1 1044.7 262.8 C 1050.7 284.1 1057.9 305.3 1045.1 340 Z" fill="#123d24" opacity="0.68"></path>
<path d="M 548.4 340 C 545.3 219.3 525.7 138.8 528.0 71.8 C 529.6 140.8 555.1 219.3 558.3 340 Z" fill="#123d24" opacity="0.76"></path>
<path d="M 417.7 340 C 417.3 308.5 411.1 287.5 412.7 270.0 C 415.4 289.5 428.0 308.5 428.4 340 Z" fill="#123d24" opacity="0.98"></path>
<path d="M 235.1 340 C 239.9 306.7 229.5 284.5 227.0 266.0 C 232.0 286.5 246.0 306.7 241.2 340 Z" fill="#123d24" opacity="0.93"></path>
<path d="M 125.7 340 C 132.5 227.6 147.9 152.7 145.4 90.2 C 149.6 154.7 136.8 227.6 130.0 340 Z" fill="#0e4a3a" opacity="0.74"></path>
<path d="M 366.5 340 C 373.3 302.8 376.7 278.0 373.7 257.3 C 379.9 280.0 381.3 302.8 374.5 340 Z" fill="#57b07c" opacity="0.55"></path>
<path d="M 177.4 340 C 174.4 301.5 169.3 275.8 168.0 254.4 C 171.0 277.8 178.7 301.5 181.7 340 Z" fill="#123d24" opacity="0.59"></path>
<path d="M 775.5 340 C 786.0 300.7 793.7 274.5 790.2 252.7 C 797.8 276.5 796.2 300.7 785.7 340 Z" fill="#57b07c" opacity="0.60"></path>
<path d="M 925.3 340 C 930.7 233.1 927.1 161.9 925.2 102.6 C 930.8 163.9 940.1 233.1 934.7 340 Z" fill="#2f7350" opacity="0.63"></path>
<path d="M 467.9 340 C 475.1 306.8 479.4 284.7 481.7 266.3 C 481.6 286.7 480.7 306.8 473.5 340 Z" fill="#123d24" opacity="0.69"></path>
<path d="M 901.6 340 C 900.4 309.8 900.4 289.6 902.1 272.8 C 902.8 291.6 906.3 309.8 907.5 340 Z" fill="#0e4a3a" opacity="0.73"></path>
<path d="M 620.5 340 C 625.7 267.7 626.9 219.4 623.3 179.3 C 628.9 221.4 630.8 267.7 625.6 340 Z" fill="#57b07c" opacity="0.75"></path>
<path d="M 1513.9 340 C 1529.7 294.9 1530.2 264.8 1534.0 239.7 C 1533.5 266.8 1538.0 294.9 1522.3 340 Z" fill="#0a2a1a" opacity="0.58"></path>
<path d="M 555.5 340 C 561.8 314.7 553.5 297.9 553.1 283.9 C 556.8 299.9 569.9 314.7 563.6 340 Z" fill="#0d3b3e" opacity="0.72"></path>
<path d="M 1044.1 340 C 1044.2 291.2 1041.6 258.7 1045.4 231.6 C 1045.1 260.7 1052.8 291.2 1052.7 340 Z" fill="#0d3b3e" opacity="0.55"></path>
<path d="M 801.7 340 C 810.0 312.7 815.9 294.6 813.7 279.4 C 819.5 296.6 818.9 312.7 810.5 340 Z" fill="#57b07c" opacity="0.96"></path>
<path d="M 801.1 340 C 804.9 305.4 807.2 282.3 810.2 263.1 C 809.2 284.3 810.0 305.4 806.2 340 Z" fill="#0a2a1a" opacity="0.71"></path>
<path d="M 1529.3 340 C 1520.8 235.3 1506.4 165.6 1507.2 107.4 C 1508.8 167.6 1526.6 235.3 1535.2 340 Z" fill="#0d3b3e" opacity="0.64"></path>
<path d="M 914.1 340 C 918.1 306.6 908.0 284.4 908.2 265.8 C 910.7 286.4 924.8 306.6 920.8 340 Z" fill="#0e4a3a" opacity="0.94"></path>
<path d="M 1029.1 340 C 1038.4 312.5 1034.7 294.2 1034.8 278.9 C 1037.6 296.2 1045.6 312.5 1036.2 340 Z" fill="#57b07c" opacity="0.89"></path>
<path d="M 246.6 340 C 243.9 282.1 243.5 243.5 243.1 211.4 C 245.3 245.5 248.5 282.1 251.2 340 Z" fill="#19543e" opacity="0.58"></path>
<path d="M 742.7 340 C 740.0 308.3 738.6 287.2 738.2 269.6 C 742.9 289.2 750.7 308.3 753.5 340 Z" fill="#123d24" opacity="0.74"></path>
<path d="M 1066.8 340 C 1067.1 317.6 1065.7 302.7 1068.4 290.3 C 1069.3 304.7 1076.3 317.6 1075.9 340 Z" fill="#0a2a1a" opacity="0.81"></path>
<path d="M 404.5 340 C 407.1 277.0 408.9 235.1 405.3 200.1 C 411.1 237.1 412.6 277.0 410.1 340 Z" fill="#57b07c" opacity="1.00"></path>
<path d="M 48.7 340 C 47.3 295.3 46.4 265.4 45.4 240.6 C 48.3 267.4 52.2 295.3 53.6 340 Z" fill="#1a3a0e" opacity="0.55"></path>
<path d="M 353.4 340 C 354.0 295.0 359.3 265.0 362.0 240.0 C 362.3 267.0 361.5 295.0 360.9 340 Z" fill="#123d24" opacity="0.86"></path>
<path d="M 902.6 340 C 901.0 256.4 906.3 200.6 910.2 154.2 C 908.3 202.6 906.0 256.4 907.7 340 Z" fill="#2f7350" opacity="0.80"></path>
<path d="M 601.5 340 C 609.5 288.2 604.3 253.6 603.8 224.8 C 607.1 255.6 616.5 288.2 608.5 340 Z" fill="#123d24" opacity="0.93"></path>
<path d="M 1418.9 340 C 1423.3 298.6 1411.3 271.0 1410.4 247.9 C 1414.4 273.0 1431.1 298.6 1426.7 340 Z" fill="#1a3a0e" opacity="0.69"></path>
<path d="M 571.2 340 C 580.4 285.7 579.8 249.4 579.3 219.2 C 581.8 251.4 585.3 285.7 576.2 340 Z" fill="#0d3b3e" opacity="0.81"></path>
<path d="M 1505.4 340 C 1506.2 246.0 1506.0 183.4 1507.6 131.2 C 1508.7 185.4 1513.1 246.0 1512.4 340 Z" fill="#0d3b3e" opacity="0.86"></path>
<path d="M 1324.2 340 C 1319.4 235.6 1299.4 166.1 1301.8 108.1 C 1301.9 168.1 1325.6 235.6 1330.4 340 Z" fill="#2f7350" opacity="0.73"></path>
<path d="M 905.2 340 C 919.8 252.2 925.1 193.6 928.6 144.8 C 928.9 195.6 929.5 252.2 914.9 340 Z" fill="#1a3a0e" opacity="0.86"></path>
<path d="M 1562.1 340 C 1557.1 279.0 1547.8 238.4 1545.8 204.5 C 1550.9 240.4 1564.8 279.0 1569.8 340 Z" fill="#19543e" opacity="0.90"></path>
<path d="M 1084.7 340 C 1096.3 285.3 1104.3 248.9 1106.9 218.5 C 1107.7 250.9 1104.7 285.3 1093.1 340 Z" fill="#0e4a3a" opacity="0.76"></path>
<path d="M 1371.1 340 C 1370.9 283.0 1366.3 245.1 1365.7 213.4 C 1368.8 247.1 1377.1 283.0 1377.3 340 Z" fill="#19543e" opacity="0.70"></path>
<path d="M 283.8 340 C 287.1 301.5 285.9 275.8 284.7 254.5 C 289.0 277.8 295.0 301.5 291.6 340 Z" fill="#57b07c" opacity="0.78"></path>
<path d="M 359.9 340 C 374.5 264.8 385.3 214.6 384.3 172.9 C 388.0 216.6 381.3 264.8 366.7 340 Z" fill="#0a2a1a" opacity="0.95"></path>
<path d="M 1077.0 340 C 1079.3 309.0 1088.9 288.3 1085.8 271.0 C 1092.7 290.3 1088.8 309.0 1086.5 340 Z" fill="#0d3b3e" opacity="0.65"></path>
<path d="M 480.3 340 C 483.7 283.3 485.4 245.4 481.5 213.9 C 487.4 247.4 488.5 283.3 485.2 340 Z" fill="#1a3a0e" opacity="0.56"></path>
<path d="M 325.7 340 C 320.6 263.6 308.9 212.7 309.5 170.2 C 311.4 214.7 326.9 263.6 332.0 340 Z" fill="#123d24" opacity="0.83"></path>
<path d="M 776.2 340 C 773.0 252.3 769.3 193.9 768.2 145.1 C 771.6 195.9 778.7 252.3 782.0 340 Z" fill="#123d24" opacity="0.86"></path>
<path d="M 3.8 340 C 3.6 268.8 12.8 221.3 13.1 181.8 C 14.9 223.3 8.7 268.8 8.9 340 Z" fill="#0e4a3a" opacity="0.77"></path>
<path d="M 1268.1 340 C 1267.2 318.7 1263.4 304.5 1265.1 292.6 C 1265.4 306.5 1272.0 318.7 1273.0 340 Z" fill="#1a3a0e" opacity="0.86"></path>
<path d="M 762.7 340 C 759.5 316.4 759.0 300.6 759.4 287.5 C 762.5 302.6 768.3 316.4 771.5 340 Z" fill="#19543e" opacity="0.60"></path>
<path d="M 1379.0 340 C 1378.9 268.5 1362.1 220.8 1362.7 181.1 C 1366.5 222.8 1389.8 268.5 1389.9 340 Z" fill="#123d24" opacity="0.75"></path>
<path d="M 1157.6 340 C 1158.8 282.5 1145.9 244.2 1145.9 212.2 C 1148.9 246.2 1166.3 282.5 1165.2 340 Z" fill="#0d3b3e" opacity="0.62"></path>
<path d="M 1480.6 340 C 1478.1 298.3 1478.4 270.5 1476.8 247.4 C 1481.0 272.5 1484.7 298.3 1487.2 340 Z" fill="#0a2a1a" opacity="0.74"></path>
<path d="M 1417.9 340 C 1416.9 294.9 1416.6 264.8 1419.8 239.7 C 1420.8 266.8 1427.4 294.9 1428.4 340 Z" fill="#0d3b3e" opacity="0.79"></path>
<path d="M 40.8 340 C 33.7 239.1 22.5 171.8 19.0 115.7 C 26.0 173.8 42.4 239.1 49.5 340 Z" fill="#123d24" opacity="0.63"></path>
<path d="M 245.0 340 C 248.5 270.3 242.3 223.8 239.8 185.1 C 244.8 225.8 254.6 270.3 251.2 340 Z" fill="#0e4a3a" opacity="0.96"></path>
<path d="M 7.4 340 C 15.1 282.6 9.6 244.4 8.6 212.5 C 13.9 246.4 26.0 282.6 18.3 340 Z" fill="#2f7350" opacity="0.59"></path>
<path d="M 16.2 340 C 37.6 242.3 57.7 177.1 55.0 122.8 C 60.8 179.1 45.4 242.3 24.0 340 Z" fill="#2f7350" opacity="0.82"></path>
<path d="M 1596.0 340 C 1590.7 226.7 1564.7 151.2 1567.8 88.3 C 1568.4 153.2 1599.7 226.7 1605.1 340 Z" fill="#123d24" opacity="0.75"></path>
<path d="M 1549.6 340 C 1556.1 232.0 1565.7 160.0 1564.8 100.0 C 1568.4 162.0 1562.9 232.0 1556.3 340 Z" fill="#57b07c" opacity="0.95"></path>
<path d="M 1054.4 340 C 1057.5 260.5 1064.9 207.6 1066.9 163.4 C 1068.9 209.6 1067.6 260.5 1064.5 340 Z" fill="#0d3b3e" opacity="0.79"></path>
<path d="M 1374.1 340 C 1381.3 302.8 1379.1 277.9 1375.4 257.3 C 1381.8 279.9 1388.2 302.8 1381.0 340 Z" fill="#57b07c" opacity="0.85"></path>
<path d="M 1110.6 340 C 1118.0 276.0 1126.0 233.3 1126.4 197.7 C 1129.2 235.3 1125.9 276.0 1118.5 340 Z" fill="#0d3b3e" opacity="0.58"></path>
<path d="M 797.1 340 C 814.0 243.2 832.0 178.6 832.9 124.8 C 834.0 180.6 818.8 243.2 802.0 340 Z" fill="#0a2a1a" opacity="0.74"></path>
<path d="M 783.4 340 C 789.4 313.5 789.1 295.9 792.1 281.2 C 790.7 297.9 793.6 313.5 787.6 340 Z" fill="#0e4a3a" opacity="0.74"></path>
<path d="M 259.5 340 C 246.9 245.3 226.2 182.2 229.8 129.6 C 229.2 184.2 254.4 245.3 266.9 340 Z" fill="#1a3a0e" opacity="0.80"></path>
<path d="M 145.6 340 C 152.9 268.1 160.1 220.2 157.4 180.3 C 162.8 222.2 159.5 268.1 152.1 340 Z" fill="#2f7350" opacity="0.80"></path>
<path d="M 957.0 340 C 960.7 267.9 945.5 219.8 946.5 179.7 C 948.2 221.8 967.6 267.9 963.9 340 Z" fill="#0d3b3e" opacity="0.97"></path>
<path d="M 385.4 340 C 387.8 279.8 405.0 239.6 401.8 206.2 C 407.2 241.6 393.1 279.8 390.8 340 Z" fill="#1a3a0e" opacity="0.99"></path>
<path d="M 428.8 340 C 422.8 242.4 411.8 177.3 408.4 123.1 C 414.6 179.3 429.6 242.4 435.6 340 Z" fill="#19543e" opacity="0.68"></path>
<path d="M 953.3 340 C 958.0 312.4 947.9 294.0 947.6 278.7 C 950.1 296.0 963.6 312.4 958.8 340 Z" fill="#0d3b3e" opacity="0.91"></path>
<path d="M 1371.3 340 C 1371.7 295.7 1370.7 266.2 1367.6 241.6 C 1374.8 268.2 1381.9 295.7 1381.5 340 Z" fill="#2f7350" opacity="0.66"></path>
<path d="M 731.5 340 C 738.8 272.8 735.8 227.9 733.0 190.6 C 737.8 229.9 743.9 272.8 736.6 340 Z" fill="#123d24" opacity="0.57"></path>
<path d="M 945.8 340 C 944.0 304.4 939.5 280.7 942.4 261.0 C 941.6 282.7 949.3 304.4 951.1 340 Z" fill="#0d3b3e" opacity="0.83"></path>
<path d="M 1564.4 340 C 1566.5 298.9 1562.0 271.4 1564.4 248.6 C 1565.2 273.4 1574.5 298.9 1572.4 340 Z" fill="#19543e" opacity="0.94"></path>
<path d="M 1241.1 340 C 1257.3 255.8 1267.3 199.7 1265.2 153.0 C 1270.4 201.7 1265.1 255.8 1248.8 340 Z" fill="#57b07c" opacity="0.95"></path>
<path d="M 377.2 340 C 377.0 301.2 383.2 275.3 380.9 253.7 C 387.2 277.3 387.2 301.2 387.4 340 Z" fill="#0a2a1a" opacity="0.66"></path>
<path d="M 1343.7 340 C 1352.4 250.4 1356.3 190.7 1357.4 140.9 C 1360.6 192.7 1363.2 250.4 1354.4 340 Z" fill="#57b07c" opacity="0.89"></path>
<path d="M 1284.0 340 C 1290.2 272.1 1300.1 226.8 1299.7 189.0 C 1302.4 228.8 1296.1 272.1 1289.9 340 Z" fill="#0d3b3e" opacity="0.91"></path>
<path d="M 1572.0 340 C 1562.1 257.9 1548.9 203.1 1545.3 157.5 C 1551.2 205.1 1567.8 257.9 1577.7 340 Z" fill="#123d24" opacity="0.99"></path>
<path d="M 1553.3 340 C 1559.5 283.8 1573.7 246.3 1574.2 215.1 C 1575.7 248.3 1564.6 283.8 1558.4 340 Z" fill="#0d3b3e" opacity="0.90"></path>
<path d="M 1472.1 340 C 1472.6 302.3 1480.8 277.2 1482.4 256.3 C 1482.6 279.2 1477.2 302.3 1476.6 340 Z" fill="#0a2a1a" opacity="0.64"></path>
<path d="M 518.6 340 C 512.8 277.1 501.4 235.2 502.2 200.3 C 503.6 237.2 518.3 277.1 524.2 340 Z" fill="#57b07c" opacity="0.91"></path>
<path d="M 36.2 340 C 37.3 231.9 20.2 159.9 17.8 99.8 C 24.3 161.9 47.7 231.9 46.6 340 Z" fill="#2f7350" opacity="0.96"></path>
<path d="M 945.2 340 C 950.8 239.8 940.1 173.1 936.2 117.4 C 943.8 175.1 960.1 239.8 954.4 340 Z" fill="#1a3a0e" opacity="0.63"></path>
<path d="M 679.3 340 C 679.4 275.9 678.6 233.2 678.9 197.6 C 682.9 235.2 690.1 275.9 690.0 340 Z" fill="#0d3b3e" opacity="0.77"></path>
<path d="M 1470.9 340 C 1477.2 237.8 1472.2 169.6 1474.0 112.8 C 1476.4 171.6 1487.7 237.8 1481.5 340 Z" fill="#19543e" opacity="0.58"></path>
<path d="M 27.6 340 C 34.0 289.6 26.1 256.0 23.0 228.0 C 29.0 258.0 41.2 289.6 34.8 340 Z" fill="#0d3b3e" opacity="0.79"></path>
<path d="M 1450.2 340 C 1449.1 279.2 1455.0 238.6 1454.5 204.8 C 1458.1 240.6 1456.9 279.2 1458.0 340 Z" fill="#1a3a0e" opacity="0.85"></path>
<path d="M 106.1 340 C 103.4 277.0 96.8 235.0 92.9 200.0 C 99.6 237.0 110.5 277.0 113.3 340 Z" fill="#1a3a0e" opacity="0.94"></path>
<path d="M 1384.1 340 C 1383.7 294.8 1385.6 264.7 1386.9 239.6 C 1388.3 266.7 1390.3 294.8 1390.7 340 Z" fill="#0e4a3a" opacity="0.71"></path>
<path d="M 67.1 340 C 65.5 315.0 65.2 298.3 62.5 284.3 C 66.9 300.3 69.8 315.0 71.5 340 Z" fill="#123d24" opacity="0.83"></path>
<path d="M 60.7 340 C 67.6 292.0 79.2 260.0 81.3 233.4 C 82.6 262.0 76.2 292.0 69.3 340 Z" fill="#2f7350" opacity="0.81"></path>
<path d="M 1335.1 340 C 1327.4 255.0 1317.0 198.3 1313.5 151.0 C 1319.4 200.3 1333.5 255.0 1341.1 340 Z" fill="#1a3a0e" opacity="0.82"></path>
<path d="M 472.0 340 C 478.2 284.9 491.8 248.2 490.6 217.6 C 494.9 250.2 485.8 284.9 479.6 340 Z" fill="#19543e" opacity="0.64"></path>
<path d="M 1526.0 340 C 1536.8 258.5 1531.2 204.2 1532.7 159.0 C 1534.9 206.2 1546.0 258.5 1535.3 340 Z" fill="#0d3b3e" opacity="0.83"></path>
<path d="M 668.3 340 C 673.6 273.1 686.1 228.5 683.2 191.3 C 687.7 230.5 677.8 273.1 672.5 340 Z" fill="#0a2a1a" opacity="0.64"></path>
<path d="M 507.6 340 C 515.4 291.4 522.1 259.0 521.8 232.1 C 526.5 261.0 526.3 291.4 518.5 340 Z" fill="#0a2a1a" opacity="0.69"></path>
<path d="M 507.7 340 C 502.0 269.9 489.5 223.2 491.1 184.3 C 493.5 225.2 512.1 269.9 517.8 340 Z" fill="#57b07c" opacity="0.93"></path>
<path d="M 485.6 340 C 480.3 250.0 468.2 190.1 464.5 140.1 C 471.0 192.1 487.3 250.0 492.5 340 Z" fill="#1a3a0e" opacity="0.91"></path>
<path d="M 612.2 340 C 621.2 256.6 634.5 200.9 637.6 154.6 C 637.6 202.9 628.9 256.6 619.9 340 Z" fill="#0e4a3a" opacity="0.96"></path>
<path d="M 987.3 340 C 993.9 300.3 996.0 273.9 997.3 251.9 C 997.6 275.9 997.9 300.3 991.3 340 Z" fill="#0a2a1a" opacity="0.76"></path>
<path d="M 1486.4 340 C 1493.4 310.8 1485.7 291.4 1484.8 275.1 C 1488.2 293.4 1499.7 310.8 1492.8 340 Z" fill="#2f7350" opacity="0.81"></path>
<path d="M 1014.3 340 C 1021.4 276.0 1016.8 233.3 1018.4 197.7 C 1018.8 235.3 1026.3 276.0 1019.3 340 Z" fill="#57b07c" opacity="0.74"></path>
<path d="M 639.1 340 C 650.6 273.8 646.0 229.7 647.6 192.9 C 649.5 231.7 659.4 273.8 647.9 340 Z" fill="#19543e" opacity="0.80"></path>
<path d="M 299.3 340 C 304.0 260.9 288.9 208.1 290.1 164.1 C 292.6 210.1 313.1 260.9 308.4 340 Z" fill="#0d3b3e" opacity="0.88"></path>
<path d="M 428.3 340 C 439.3 279.9 456.3 239.8 452.6 206.4 C 458.4 241.8 444.5 279.9 433.5 340 Z" fill="#2f7350" opacity="0.85"></path>
<path d="M 303.7 340 C 301.7 276.4 295.0 234.0 291.8 198.6 C 299.3 236.0 312.6 276.4 314.6 340 Z" fill="#123d24" opacity="0.91"></path>
<path d="M 592.8 340 C 596.9 286.8 598.9 251.3 602.1 221.7 C 603.0 253.3 607.0 286.8 602.9 340 Z" fill="#19543e" opacity="0.97"></path>
<path d="M 918.6 340 C 921.6 263.5 927.8 212.5 930.3 170.0 C 931.5 214.5 930.8 263.5 927.8 340 Z" fill="#123d24" opacity="0.88"></path>
<path d="M 545.7 340 C 555.9 258.3 568.8 203.9 565.5 158.5 C 572.1 205.9 564.3 258.3 554.1 340 Z" fill="#57b07c" opacity="0.68"></path>
<path d="M 159.6 340 C 165.0 305.7 174.6 282.8 172.5 263.7 C 177.7 284.8 172.7 305.7 167.3 340 Z" fill="#0e4a3a" opacity="0.77"></path>
<path d="M 276.8 340 C 268.2 263.1 255.2 211.8 256.4 169.1 C 256.9 213.8 272.5 263.1 281.0 340 Z" fill="#57b07c" opacity="0.94"></path>
<path d="M 911.6 340 C 923.8 224.9 951.2 148.1 954.3 84.1 C 954.8 150.1 932.9 224.9 920.7 340 Z" fill="#0e4a3a" opacity="0.78"></path>
<path d="M 366.8 340 C 368.1 301.2 364.4 275.4 366.2 253.8 C 366.9 277.4 374.4 301.2 373.0 340 Z" fill="#57b07c" opacity="0.92"></path>
<path d="M 1153.5 340 C 1149.3 290.9 1146.5 258.2 1146.2 231.0 C 1149.7 260.2 1157.6 290.9 1161.7 340 Z" fill="#0d3b3e" opacity="0.89"></path>
<path d="M 745.4 340 C 751.9 297.3 754.4 268.8 755.3 245.1 C 757.3 270.8 758.9 297.3 752.4 340 Z" fill="#0e4a3a" opacity="0.86"></path>
<path d="M 322.1 340 C 328.2 291.6 343.9 259.3 340.8 232.4 C 347.5 261.3 337.1 291.6 331.0 340 Z" fill="#123d24" opacity="0.83"></path>
<path d="M 243.3 340 C 248.0 302.3 257.6 277.2 253.7 256.3 C 260.6 279.2 255.3 302.3 250.6 340 Z" fill="#123d24" opacity="0.57"></path>
<path d="M 439.3 340 C 444.9 288.0 429.3 253.3 433.2 224.3 C 431.8 255.3 451.1 288.0 445.5 340 Z" fill="#0a2a1a" opacity="0.60"></path>
<path d="M 1073.9 340 C 1073.8 294.4 1085.1 264.0 1081.7 238.7 C 1087.4 266.0 1079.5 294.4 1079.5 340 Z" fill="#0d3b3e" opacity="0.85"></path>
<path d="M 1284.2 340 C 1278.7 281.9 1269.3 243.1 1272.3 210.8 C 1272.9 245.1 1287.8 281.9 1293.2 340 Z" fill="#123d24" opacity="0.78"></path>
<path d="M 953.5 340 C 943.7 259.2 934.7 205.4 936.1 160.5 C 937.0 207.4 949.3 259.2 959.1 340 Z" fill="#1a3a0e" opacity="0.65"></path>
<path d="M 1193.9 340 C 1205.4 254.1 1208.2 196.9 1210.3 149.2 C 1209.8 198.9 1209.5 254.1 1198.0 340 Z" fill="#123d24" opacity="0.94"></path>
<path d="M 172.6 340 C 172.1 306.0 179.3 283.3 178.2 264.4 C 181.4 285.3 177.3 306.0 177.7 340 Z" fill="#123d24" opacity="0.55"></path>
<path d="M 193.0 340 C 187.0 221.9 160.6 143.2 156.8 77.6 C 165.0 145.2 197.9 221.9 203.9 340 Z" fill="#0e4a3a" opacity="0.55"></path>
<path d="M 93.2 340 C 89.7 281.5 79.9 242.5 80.5 210.0 C 84.1 244.5 100.1 281.5 103.6 340 Z" fill="#57b07c" opacity="0.88"></path>
<path d="M 577.4 340 C 584.2 277.6 586.6 236.0 589.6 201.4 C 590.8 238.0 594.8 277.6 588.0 340 Z" fill="#0d3b3e" opacity="0.67"></path>
<path d="M 340.1 340 C 338.5 276.2 319.4 233.7 322.0 198.3 C 323.5 235.7 348.6 276.2 350.2 340 Z" fill="#0e4a3a" opacity="0.77"></path>
<path d="M 599.0 340 C 589.0 250.7 573.9 191.2 572.7 141.7 C 578.1 193.2 599.5 250.7 609.5 340 Z" fill="#2f7350" opacity="0.80"></path>
<path d="M 1425.6 340 C 1433.5 284.3 1446.8 247.2 1443.3 216.2 C 1448.5 249.2 1437.7 284.3 1429.8 340 Z" fill="#57b07c" opacity="0.70"></path>
<path d="M 198.9 340 C 203.7 223.6 215.0 145.9 211.1 81.3 C 217.6 147.9 210.2 223.6 205.4 340 Z" fill="#0e4a3a" opacity="0.96"></path>
<path d="M 49.4 340 C 41.8 231.8 36.6 159.7 40.2 99.5 C 38.5 161.7 46.5 231.8 54.1 340 Z" fill="#123d24" opacity="0.77"></path>
<path d="M 207.1 340 C 210.3 279.9 207.3 239.9 204.8 206.5 C 211.3 241.9 220.5 279.9 217.3 340 Z" fill="#2f7350" opacity="0.73"></path>
<path d="M 1158.2 340 C 1169.2 275.6 1186.6 232.6 1184.7 196.9 C 1190.9 234.6 1180.0 275.6 1168.9 340 Z" fill="#0a2a1a" opacity="0.78"></path>
<path d="M 1493.5 340 C 1493.7 289.5 1500.4 255.8 1496.9 227.7 C 1503.8 257.8 1502.2 289.5 1502.1 340 Z" fill="#19543e" opacity="0.88"></path>
<path d="M 962.5 340 C 957.1 227.9 944.1 153.2 942.0 90.9 C 948.3 155.2 967.5 227.9 972.9 340 Z" fill="#0d3b3e" opacity="0.87"></path>
<path d="M 1019.1 340 C 1023.4 297.3 1028.4 268.8 1029.2 245.0 C 1030.8 270.8 1029.5 297.3 1025.2 340 Z" fill="#1a3a0e" opacity="0.93"></path>
<path d="M 688.9 340 C 684.3 278.4 677.6 237.3 679.4 203.1 C 679.9 239.3 689.9 278.4 694.6 340 Z" fill="#0a2a1a" opacity="0.90"></path>
<path d="M 968.0 340 C 973.1 264.1 957.8 213.6 961.3 171.4 C 962.1 215.6 983.7 264.1 978.7 340 Z" fill="#57b07c" opacity="0.76"></path>
<path d="M 155.6 340 C 162.0 270.7 168.7 224.6 165.1 186.1 C 171.6 226.6 169.2 270.7 162.8 340 Z" fill="#57b07c" opacity="0.56"></path>
</svg>